{"glyphs":{":":{"x_min":0,"x_max":108,"ha":108,"o":"m 54 0 q 38 0 27 11 q 16 22 16 38 q 16 54 27 65 q 38 76 54 76 q 70 76 81 65 q 92 54 92 38 q 92 22 81 11 q 70 0 54 0 z m 16 290 q 16 306 27 317 q 38 328 54 328 q 70 328 81 317 q 92 306 92 290 q 92 274 81 263 q 70 252 54 252 q 38 252 27 263 q 16 274 16 290 z"},"$":{"x_min":0,"x_max":415,"ha":415,"o":"m 36 124 q 48 124 57 115 q 81 92 118 77 q 155 62 193 60 q 195 105 196 168 q 198 230 201 299 q 178 315 154 330 q 130 345 111 363 q 92 381 80 404 q 68 428 68 460 q 68 494 82 520 q 95 547 116 566 q 138 585 164 597 q 191 609 216 614 q 217 622 218 630 q 219 637 222 644 q 226 650 232 654 q 238 658 248 658 q 260 658 269 649 q 278 640 278 628 q 278 626 278 624 q 277 621 276 617 q 290 616 305 613 q 320 610 333 604 q 346 598 354 590 q 363 581 363 569 q 363 557 354 548 q 345 539 333 539 q 324 539 316 544 q 301 555 272 558 q 270 522 268 471 q 265 420 263 363 q 271 357 275 355 q 298 339 321 323 q 344 307 363 286 q 382 265 394 238 q 405 212 405 175 q 405 137 392 108 q 379 79 358 58 q 337 37 310 24 q 282 11 252 5 q 252 -10 246 -22 q 240 -34 222 -34 q 207 -34 200 -24 q 192 -14 192 0 q 141 2 94 22 q 47 41 15 73 q 6 82 6 94 q 6 107 15 116 q 24 124 36 124 z m 258 247 q 256 196 255 151 q 254 106 252 71 q 273 82 282 102 q 290 122 290 150 q 290 182 281 206 q 272 229 258 247 z m 183 484 q 183 463 188 446 q 194 429 205 415 q 207 452 208 486 q 209 519 211 547 q 198 538 190 523 q 183 508 183 484 z"},"?":{"x_min":0,"x_max":267,"ha":267,"o":"m 41 483 q 29 483 20 492 q 11 501 11 513 q 11 522 16 530 q 40 567 72 588 q 105 609 138 609 q 163 609 186 603 q 208 597 225 584 q 242 570 252 550 q 262 530 262 501 q 262 462 252 414 q 241 365 223 316 q 205 267 182 222 q 159 177 134 144 q 96 93 61 93 q 49 93 40 102 q 31 111 31 124 q 32 135 40 157 q 48 179 69 230 q 83 263 98 302 q 114 341 128 380 q 142 419 151 455 q 160 491 160 517 q 160 528 158 534 q 155 541 152 544 q 148 547 144 548 q 141 548 139 548 q 125 549 104 537 q 84 525 66 497 q 57 483 41 483 z m 29 39 q 29 54 40 65 q 51 76 67 76 q 83 76 94 65 q 104 54 104 39 q 104 23 94 12 q 83 1 67 1 q 51 1 40 12 q 29 23 29 39 z"},"<":{"x_min":0,"x_max":254,"ha":254,"o":"m 82 256 q 114 238 148 222 q 182 207 217 192 q 235 185 235 165 q 235 152 226 144 q 218 135 205 135 q 198 135 175 144 q 152 154 126 166 q 100 178 77 190 q 54 202 46 207 q 29 217 16 228 q 4 238 4 255 q 4 272 16 283 q 29 294 45 304 q 54 309 77 322 q 100 334 126 346 q 152 359 175 368 q 198 378 206 378 q 218 378 227 369 q 236 360 236 348 q 236 328 217 320 q 182 306 148 290 q 114 275 82 256 z"},"'":{"x_min":0,"x_max":97,"ha":97,"o":"m 77 439 q 77 421 78 402 q 79 382 81 366 q 81 353 73 343 q 65 333 51 333 q 40 333 32 341 q 23 349 21 360 q 20 368 18 390 q 17 412 17 437 q 17 453 18 468 q 19 483 23 494 q 29 515 51 515 q 64 515 72 506 q 81 498 81 485 q 81 479 80 476 q 78 471 78 461 q 77 451 77 439 z"},"=":{"x_min":0,"x_max":216,"ha":216,"o":"m 17 239 q 17 251 26 260 q 35 269 47 269 q 53 269 56 268 q 61 266 71 266 q 81 265 93 265 q 111 265 130 266 q 150 266 166 268 q 167 269 169 269 q 181 269 190 260 q 199 251 199 239 q 199 227 191 218 q 183 210 172 209 q 164 208 142 206 q 121 205 95 205 q 79 205 64 206 q 49 207 38 210 q 28 213 22 221 q 17 229 17 239 z m 166 358 q 167 359 169 359 q 181 359 190 350 q 199 341 199 329 q 199 317 191 308 q 183 300 172 299 q 164 298 142 296 q 121 295 95 295 q 79 295 64 296 q 49 297 38 300 q 28 303 22 311 q 17 319 17 329 q 17 341 26 350 q 35 359 47 359 q 53 359 56 358 q 61 356 71 356 q 81 355 93 355 q 111 355 130 356 q 150 356 166 358 z"},"a":{"x_min":0,"x_max":338,"ha":338,"o":"m 113 0 q 61 0 37 25 q 13 50 13 80 q 13 113 31 136 q 49 160 76 176 q 103 191 134 198 q 166 205 193 205 q 196 205 198 204 q 197 212 194 223 q 192 234 188 244 q 183 254 176 261 q 169 268 158 268 q 149 268 138 265 q 126 262 116 256 q 105 250 97 242 q 89 234 87 224 q 85 213 77 207 q 69 201 58 201 q 46 201 37 210 q 28 218 28 231 q 28 248 42 266 q 55 284 67 295 q 81 306 104 317 q 126 328 158 328 q 197 328 228 314 q 258 301 280 278 q 301 255 312 223 q 324 191 324 154 q 324 133 319 106 q 314 80 302 56 q 291 32 272 16 q 254 -1 228 -1 q 216 -1 207 8 q 198 17 198 29 q 198 31 198 34 q 199 36 199 38 q 201 42 201 47 q 160 0 113 0 z m 194 145 q 179 145 164 140 q 148 135 136 125 q 123 115 116 102 q 108 89 108 72 q 108 61 110 61 q 124 61 137 70 q 150 78 161 91 q 172 104 180 119 q 189 134 194 145 z"},"L":{"x_min":0,"x_max":377,"ha":377,"o":"m 193 0 q 177 0 156 2 q 135 3 116 8 q 96 14 80 24 q 63 34 56 52 q 44 82 36 120 q 29 158 24 197 q 20 236 18 272 q 16 308 16 334 q 16 357 18 395 q 19 433 23 474 q 27 514 34 550 q 42 586 54 605 q 64 619 74 623 q 84 627 91 627 q 96 627 106 624 q 115 620 123 605 q 131 590 132 566 q 134 542 135 526 q 136 512 136 498 q 136 483 136 466 q 136 367 132 268 q 128 169 117 71 q 124 67 142 64 q 160 60 193 60 q 207 60 225 61 q 243 62 262 64 q 281 66 298 69 q 316 72 328 77 q 336 83 346 83 q 359 83 368 74 q 376 65 376 53 q 376 34 352 24 q 328 13 297 8 q 266 2 236 1 q 205 0 193 0 z"},"3":{"x_min":0,"x_max":361,"ha":361,"o":"m 182 361 q 215 354 246 338 q 276 322 300 299 q 323 276 336 246 q 350 215 350 178 q 350 135 332 102 q 313 68 283 46 q 253 23 215 12 q 177 0 138 0 q 127 0 106 2 q 84 4 63 9 q 42 14 26 24 q 10 33 10 49 q 10 61 19 70 q 28 79 40 79 q 44 79 50 77 q 98 60 138 60 q 162 60 180 70 q 198 79 210 95 q 223 111 229 132 q 235 152 235 174 q 235 200 226 224 q 216 247 198 266 q 180 285 154 296 q 128 308 95 308 q 78 308 68 315 q 57 322 57 336 q 57 348 70 367 q 117 433 144 480 q 172 527 190 560 q 162 561 124 561 q 86 561 46 561 q 34 561 25 570 q 16 579 16 591 q 16 604 25 612 q 34 621 46 621 q 82 621 116 621 q 151 621 178 620 q 205 620 222 620 q 239 620 239 620 q 262 620 276 606 q 290 591 290 568 q 290 546 278 518 q 266 489 250 460 q 233 431 214 404 q 196 378 182 361 z"},";":{"x_min":0,"x_max":122,"ha":122,"o":"m 24 52 q 25 64 34 72 q 43 81 56 80 q 68 79 76 70 q 85 61 84 49 q 84 42 86 29 q 89 16 93 1 q 97 -14 102 -30 q 107 -46 111 -58 q 113 -64 113 -68 q 113 -81 104 -90 q 95 -98 83 -98 q 74 -98 66 -92 q 58 -87 55 -78 q 49 -65 44 -48 q 38 -32 34 -14 q 29 4 26 21 q 24 38 24 52 z m 84 290 q 84 274 73 263 q 62 252 46 252 q 30 252 19 263 q 8 274 8 290 q 8 306 19 317 q 30 328 46 328 q 62 328 73 317 q 84 306 84 290 z"},"J":{"x_min":0,"x_max":334,"ha":334,"o":"m 149 610 q 158 610 168 610 q 178 610 189 611 q 194 614 200 615 q 205 616 207 616 q 215 616 222 612 q 239 613 256 615 q 274 617 292 619 q 306 619 316 612 q 326 604 326 589 q 326 578 318 570 q 311 561 300 559 q 289 557 278 556 q 266 556 255 554 q 268 506 272 455 q 277 404 277 354 q 277 321 274 282 q 271 242 262 202 q 254 163 240 126 q 225 90 202 62 q 179 34 146 17 q 114 0 70 0 q 61 0 50 0 q 40 1 31 4 q 22 8 16 14 q 10 21 10 33 q 10 45 18 54 q 27 63 40 63 q 42 63 42 62 q 43 62 45 62 q 47 62 50 62 q 53 61 56 61 q 81 61 98 83 q 114 105 125 134 q 136 164 142 194 q 147 224 149 240 q 158 300 161 364 q 164 427 166 478 q 166 499 166 518 q 167 536 168 550 l 149 550 q 111 550 88 552 q 64 553 62 553 q 51 554 43 563 q 35 572 35 583 q 35 597 44 605 q 54 613 68 613 q 78 612 91 612 q 102 611 116 610 q 131 610 149 610 z"},"V":{"x_min":0,"x_max":452,"ha":452,"o":"m 62 620 q 77 620 87 610 q 97 599 104 584 q 111 570 115 554 q 119 538 121 527 q 129 494 136 452 q 143 410 151 363 q 160 310 169 258 q 178 207 188 162 q 199 114 208 92 q 216 71 221 64 q 238 81 255 120 q 272 159 288 210 q 305 260 320 317 q 335 374 348 427 q 360 480 370 524 q 379 569 384 594 q 386 605 394 612 q 402 618 413 618 q 425 618 434 610 q 443 601 443 588 q 443 584 442 582 q 432 527 418 465 q 405 403 389 340 q 373 278 354 218 q 335 157 313 105 q 307 91 298 73 q 289 55 278 38 q 266 22 252 11 q 237 0 219 0 q 185 0 156 32 q 127 65 104 115 q 81 165 64 226 q 47 288 36 346 q 24 405 18 454 q 13 503 13 528 q 13 540 14 556 q 16 572 21 586 q 26 601 36 610 q 45 620 62 620 z"},"\"":{"x_min":0,"x_max":180,"ha":180,"o":"m 22 360 q 21 368 20 390 q 18 412 18 437 q 18 453 19 468 q 20 483 24 494 q 30 515 52 515 q 65 515 74 506 q 82 498 82 485 q 82 479 81 476 q 79 471 78 461 q 78 451 78 439 q 78 421 79 402 q 80 382 82 366 q 82 353 74 343 q 66 333 52 333 q 41 333 32 341 q 24 349 22 360 z m 132 515 q 145 515 154 506 q 162 498 162 485 q 162 479 161 476 q 159 471 158 461 q 158 451 158 439 q 158 421 159 402 q 160 382 162 366 q 162 353 154 343 q 146 333 132 333 q 121 333 112 341 q 104 349 102 360 q 101 368 100 390 q 98 412 98 437 q 98 453 99 468 q 100 483 104 494 q 110 515 132 515 z"},"7":{"x_min":0,"x_max":299,"ha":299,"o":"m 128 560 q 111 560 94 560 q 78 559 66 558 q 51 557 39 556 q 26 556 16 564 q 6 572 6 586 q 6 598 14 606 q 22 615 34 616 q 35 616 63 618 q 91 620 128 620 q 151 620 172 619 q 194 618 216 614 q 258 607 274 590 q 290 572 290 531 q 290 503 284 461 q 277 419 266 371 q 256 323 242 272 q 228 222 214 176 q 199 130 184 92 q 169 55 156 32 q 152 24 142 12 q 132 0 115 0 q 103 0 96 6 q 90 12 86 21 q 83 30 82 40 q 81 51 81 60 q 81 105 95 170 q 109 236 129 306 q 149 377 171 443 q 193 509 209 555 q 198 557 178 558 q 159 560 128 560 z"},"S":{"x_min":0,"x_max":419,"ha":419,"o":"m 336 539 q 327 539 319 544 q 297 558 263 558 q 230 558 208 542 q 186 526 186 484 q 186 437 214 408 q 241 379 278 355 q 301 339 324 323 q 347 307 366 286 q 385 265 396 238 q 408 212 408 175 q 408 129 390 96 q 371 63 342 42 q 313 20 277 10 q 241 0 205 0 q 152 0 102 20 q 51 39 18 73 q 9 82 9 94 q 9 107 18 116 q 27 124 39 124 q 51 124 60 115 q 86 90 125 75 q 164 60 204 60 q 254 60 274 85 q 293 110 293 150 q 293 177 286 199 q 279 221 268 238 q 256 255 241 269 q 226 283 209 295 q 185 312 160 328 q 136 343 116 362 q 96 380 84 404 q 71 427 71 460 q 71 501 90 530 q 109 560 138 580 q 166 599 198 608 q 231 618 258 618 q 271 618 290 616 q 308 613 325 608 q 342 602 354 592 q 366 583 366 569 q 366 557 357 548 q 348 539 336 539 z"},"}":{"x_min":0,"x_max":244,"ha":244,"o":"m 110 251 q 100 264 88 283 q 77 302 77 330 q 77 357 91 386 q 101 407 105 426 q 109 446 109 463 q 109 474 106 492 q 102 509 95 526 q 88 542 78 554 q 67 565 52 565 q 40 565 31 574 q 22 582 22 594 q 22 610 33 617 q 44 624 58 624 q 91 623 120 606 q 148 590 169 564 q 190 537 202 505 q 214 473 214 442 q 214 399 195 360 q 187 341 187 330 q 187 318 193 308 q 199 298 208 287 q 216 276 224 263 q 232 250 233 233 q 234 213 220 198 q 206 183 193 172 q 191 170 188 168 q 186 166 184 164 q 183 161 183 153 q 183 138 190 117 q 196 96 204 77 q 214 52 222 29 q 229 6 229 -16 q 229 -38 221 -54 q 213 -69 200 -79 q 186 -89 168 -94 q 151 -98 131 -98 q 121 -98 100 -96 q 79 -95 59 -90 q 39 -84 24 -74 q 8 -65 8 -50 q 8 -38 17 -29 q 26 -20 38 -20 q 42 -20 48 -22 q 60 -26 73 -28 q 86 -31 98 -31 q 107 -31 113 -30 q 119 -28 119 -17 q 119 -3 112 16 q 106 35 98 54 q 88 80 80 104 q 72 129 72 153 q 72 176 80 190 q 88 204 105 218 q 108 221 114 226 q 119 230 122 234 q 120 237 116 242 q 113 247 110 251 z"},"Z":{"x_min":0,"x_max":450,"ha":450,"o":"m 318 557 q 312 559 300 560 q 287 562 265 562 q 227 562 188 558 q 149 554 111 548 q 97 548 86 555 q 76 562 76 578 q 76 589 83 597 q 90 605 101 607 q 142 614 182 618 q 223 622 265 622 q 290 622 314 619 q 337 616 355 606 q 373 596 384 578 q 394 561 394 531 q 394 497 378 463 q 363 429 346 400 q 316 351 276 300 q 235 250 197 202 q 165 164 138 130 q 112 97 102 77 q 125 66 152 63 q 180 60 205 60 q 234 60 262 64 q 291 67 316 72 q 341 78 360 85 q 379 92 388 100 q 396 107 407 107 q 420 107 428 98 q 437 89 437 77 q 437 55 408 40 q 380 26 342 17 q 304 8 266 4 q 227 0 206 0 q 182 0 148 4 q 115 8 84 20 q 54 31 32 52 q 10 72 10 104 q 10 121 22 148 q 34 174 67 222 q 93 260 126 302 q 159 344 193 387 q 219 419 242 448 q 265 478 283 504 q 299 525 307 538 q 315 550 318 557 z"},"x":{"x_min":0,"x_max":296,"ha":296,"o":"m 17 291 q 17 308 29 318 q 41 328 57 328 q 73 328 90 316 q 107 305 122 289 q 138 273 152 256 q 165 238 174 226 q 190 249 202 269 q 215 289 222 306 q 230 324 250 324 q 262 324 271 316 q 280 307 280 294 q 280 285 271 268 q 262 251 250 232 q 238 214 226 197 q 215 180 209 172 q 216 161 226 144 q 235 127 244 108 q 253 90 259 72 q 265 54 265 40 q 265 24 256 12 q 246 0 229 0 q 220 0 213 4 q 204 8 194 18 q 183 27 172 38 q 162 49 153 60 q 144 72 138 81 q 114 52 97 32 q 80 13 78 11 q 69 1 55 1 q 43 1 34 10 q 25 18 25 31 q 25 41 33 51 q 42 61 53 74 q 63 85 75 100 q 87 115 101 132 q 82 160 63 190 q 44 219 30 250 q 25 260 21 270 q 17 280 17 291 z"},")":{"x_min":0,"x_max":242,"ha":242,"o":"m 96 492 q 84 536 72 550 q 61 565 56 565 q 44 566 36 574 q 27 583 27 596 q 27 608 36 616 q 44 625 57 625 q 93 625 120 606 q 147 588 166 558 q 186 528 198 490 q 211 451 218 412 q 226 374 229 338 q 232 302 232 276 q 232 247 229 208 q 226 169 218 128 q 209 88 196 49 q 182 10 160 -20 q 139 -51 110 -70 q 80 -89 40 -89 q 27 -88 18 -80 q 10 -71 10 -58 q 10 -46 19 -38 q 28 -29 40 -29 q 50 -29 64 -10 q 78 10 92 58 q 104 103 111 162 q 118 221 118 286 q 118 346 112 398 q 107 451 96 492 z"},"&":{"x_min":0,"x_max":387,"ha":387,"o":"m 149 550 q 191 549 210 524 q 228 498 228 460 q 228 436 222 408 q 217 380 209 352 q 201 323 191 296 q 181 268 173 246 q 202 198 238 148 q 261 176 283 210 q 305 245 324 287 q 332 304 351 304 q 364 304 372 296 q 381 287 381 274 q 381 262 368 236 q 355 211 337 184 q 319 157 301 133 q 283 109 274 99 q 291 78 301 66 q 311 53 311 52 q 318 45 318 33 q 318 21 310 12 q 301 3 288 3 q 274 3 265 14 q 264 15 254 26 q 245 37 231 57 q 197 30 163 16 q 129 1 97 1 q 54 1 34 28 q 14 54 14 94 q 14 118 20 146 q 26 175 34 204 q 43 233 53 260 q 63 288 72 311 q 58 344 51 372 q 44 400 44 424 q 44 447 51 469 q 58 491 72 509 q 85 527 104 538 q 124 550 149 550 z m 195 105 q 182 122 170 140 q 158 157 147 175 q 139 155 133 138 q 127 120 122 104 q 114 74 112 62 q 150 70 195 105 z m 107 400 q 123 444 134 485 q 118 477 111 459 q 104 441 104 424 q 104 412 107 400 z"},"_":{"x_min":0,"x_max":299,"ha":299,"o":"m 34 -130 q 23 -126 17 -115 q 11 -104 14 -93 q 19 -77 29 -74 q 39 -72 52 -72 q 57 -74 77 -74 q 97 -75 123 -75 q 141 -75 160 -75 q 180 -75 198 -74 q 216 -74 230 -74 q 244 -73 252 -72 q 253 -71 255 -71 q 267 -71 276 -80 q 285 -89 285 -102 q 285 -113 277 -122 q 269 -130 258 -131 q 254 -131 240 -132 q 227 -133 208 -134 q 189 -134 166 -134 q 144 -135 122 -135 q 93 -135 69 -134 q 45 -133 34 -130 z"},"v":{"x_min":0,"x_max":302,"ha":302,"o":"m 139 102 q 141 83 144 74 q 147 65 149 61 q 165 69 179 100 q 193 130 204 166 q 215 203 222 238 q 229 273 232 291 q 234 302 242 310 q 250 317 261 317 q 274 317 282 308 q 291 299 291 287 q 291 275 288 256 q 284 238 280 218 q 275 199 270 181 q 265 163 262 152 q 256 133 246 106 q 237 80 223 56 q 209 33 190 16 q 170 0 145 0 q 108 0 83 20 q 58 40 43 70 q 28 100 22 134 q 15 169 15 199 q 15 215 18 237 q 20 259 28 280 q 35 300 48 314 q 61 328 83 328 q 95 328 104 322 q 112 317 118 308 q 123 300 126 290 q 128 279 129 269 q 131 252 132 232 q 133 212 134 189 q 135 166 136 144 q 137 122 139 102 z"},"O":{"x_min":0,"x_max":478,"ha":478,"o":"m 13 302 q 13 356 27 412 q 41 468 70 514 q 100 560 145 589 q 190 618 253 618 q 311 618 352 590 q 392 563 417 521 q 442 479 453 428 q 464 377 464 328 q 464 279 452 222 q 440 164 414 115 q 387 66 344 33 q 302 0 242 0 q 182 0 138 28 q 95 56 68 100 q 40 143 26 196 q 13 250 13 302 z m 254 558 q 215 558 190 528 q 166 498 152 456 q 137 415 132 372 q 126 328 126 300 q 126 275 131 234 q 136 194 148 156 q 161 117 184 88 q 207 60 243 60 q 288 60 319 89 q 350 118 368 160 q 387 201 396 247 q 404 293 404 328 q 404 363 397 403 q 390 443 372 478 q 355 512 326 535 q 298 558 254 558 z"},"(":{"x_min":0,"x_max":242,"ha":242,"o":"m 215 596 q 216 583 207 574 q 198 566 185 565 q 181 565 170 550 q 158 536 147 492 q 136 451 130 398 q 125 346 125 286 q 125 221 132 162 q 138 103 150 58 q 164 10 178 -10 q 192 -29 202 -29 q 215 -29 224 -38 q 232 -46 232 -58 q 232 -71 224 -80 q 215 -88 203 -89 q 163 -89 133 -70 q 103 -51 82 -20 q 60 10 46 50 q 33 89 24 130 q 16 170 13 208 q 10 247 10 276 q 10 303 13 339 q 16 375 24 414 q 31 453 44 490 q 56 528 76 558 q 95 588 122 606 q 149 625 185 625 q 198 625 206 616 q 215 608 215 596 z"},"C":{"x_min":0,"x_max":422,"ha":422,"o":"m 130 282 q 130 261 134 224 q 137 186 148 150 q 158 113 178 86 q 197 60 228 60 q 260 60 284 78 q 308 95 324 116 q 339 137 347 154 q 355 172 355 172 q 358 181 366 186 q 374 192 383 192 q 395 192 404 184 q 413 175 413 162 q 413 155 408 142 q 403 130 396 118 q 389 105 382 94 q 374 83 370 78 q 341 40 306 20 q 270 0 228 0 q 170 0 129 28 q 88 55 62 98 q 37 141 25 193 q 13 245 13 295 q 13 347 26 404 q 38 460 66 508 q 93 555 136 586 q 180 617 242 617 q 253 617 270 613 q 288 609 306 601 q 323 593 336 582 q 348 571 348 557 q 348 545 339 536 q 330 527 318 527 q 308 527 300 533 q 267 559 240 557 q 218 557 202 540 q 185 524 173 498 q 161 472 152 440 q 144 409 139 379 q 134 349 132 323 q 130 297 130 282 z"},"W":{"x_min":0,"x_max":683,"ha":683,"o":"m 398 339 q 403 319 407 292 q 411 266 415 237 q 420 205 424 174 q 429 142 435 116 q 442 89 448 78 q 453 66 456 62 q 472 77 488 116 q 505 154 521 206 q 537 257 552 315 q 566 373 578 427 q 589 481 598 525 q 607 569 611 593 q 613 604 621 611 q 629 618 640 618 q 656 618 663 608 q 670 597 670 583 q 660 528 648 466 q 636 404 621 342 q 606 279 588 218 q 569 158 548 106 q 542 92 534 74 q 526 56 514 40 q 503 23 488 12 q 474 0 456 0 q 429 0 407 14 q 385 28 368 49 q 352 70 340 95 q 328 120 320 142 q 315 123 307 98 q 299 73 286 52 q 273 30 255 15 q 237 0 212 0 q 178 0 150 32 q 121 63 100 112 q 78 162 62 223 q 46 284 36 342 q 25 399 20 448 q 15 496 15 521 q 15 534 16 551 q 17 568 22 584 q 27 599 37 610 q 47 620 65 620 q 70 620 79 617 q 88 614 96 603 q 107 589 113 566 q 119 543 123 526 q 130 494 136 452 q 143 410 150 363 q 158 310 166 258 q 174 207 184 162 q 195 110 204 88 q 212 67 216 61 q 233 70 246 105 q 259 140 268 182 q 277 225 282 264 q 288 304 289 322 q 289 326 290 328 q 291 340 294 354 q 297 368 303 379 q 309 390 320 398 q 330 405 345 405 q 358 405 367 398 q 376 392 382 382 q 388 373 392 362 q 396 350 398 339 z"},"A":{"x_min":0,"x_max":378,"ha":378,"o":"m 356 -2 q 355 -14 346 -22 q 338 -30 326 -30 q 308 -30 296 -18 q 284 -6 276 11 q 269 28 266 47 q 262 66 260 79 q 256 111 254 148 q 253 186 252 228 q 233 225 210 222 q 187 218 164 214 q 140 211 118 208 q 96 206 79 204 q 73 144 73 91 q 73 60 76 34 q 76 20 68 10 q 60 1 46 1 q 35 1 26 8 q 18 16 16 28 q 13 55 13 91 q 13 118 16 168 q 20 217 28 276 q 36 334 50 395 q 64 456 86 506 q 108 556 138 588 q 167 619 207 619 q 246 619 272 593 q 299 567 316 526 q 333 485 342 434 q 352 384 356 334 q 361 284 362 242 q 362 199 362 173 q 362 137 361 106 q 360 74 359 51 q 358 28 357 14 q 356 -1 356 -2 z m 86 265 q 103 267 124 270 q 144 272 166 275 q 188 278 210 282 q 231 286 250 289 q 249 341 246 390 q 244 439 238 479 q 237 483 234 496 q 232 509 228 523 q 224 537 218 548 q 213 559 207 559 q 190 559 175 541 q 160 523 147 494 q 134 466 124 432 q 113 397 106 364 q 98 331 93 304 q 88 278 86 265 z"},"f":{"x_min":0,"x_max":269,"ha":269,"o":"m 108 0 q 87 0 72 17 q 56 34 46 61 q 35 88 29 122 q 23 155 20 186 q 16 218 15 244 q 14 271 14 285 q 14 311 16 346 q 18 381 24 418 q 31 454 42 490 q 54 525 72 553 q 91 581 118 598 q 144 615 180 615 q 189 615 204 612 q 218 609 232 602 q 245 596 254 587 q 264 578 264 566 q 264 554 256 545 q 247 536 234 536 q 224 536 218 541 q 196 555 179 555 q 168 555 160 541 q 152 527 147 506 q 142 484 139 458 q 136 432 134 408 q 133 384 132 364 q 132 345 132 337 q 132 287 135 239 q 154 240 170 242 q 185 243 193 245 q 196 247 203 247 q 215 247 224 238 q 233 229 233 217 q 233 208 228 200 q 222 192 213 189 q 200 184 180 182 q 160 180 138 179 q 140 149 142 119 q 143 89 143 59 q 143 50 142 40 q 141 29 138 20 q 134 12 127 6 q 120 0 108 0 z"},"Q":{"x_min":0,"x_max":509,"ha":509,"o":"m 44 300 q 44 354 58 410 q 72 466 102 512 q 131 558 176 587 q 221 616 284 616 q 342 616 382 588 q 423 561 448 519 q 473 477 484 426 q 495 375 495 326 q 495 277 483 220 q 471 163 444 114 q 418 64 376 31 q 334 -2 274 -2 q 214 -2 170 26 q 127 54 99 98 q 71 141 58 194 q 44 248 44 300 z m 285 556 q 246 556 222 526 q 197 496 183 455 q 169 414 164 370 q 158 326 158 299 q 158 282 160 258 q 162 233 167 206 q 172 180 180 154 q 188 127 201 106 q 214 85 232 72 q 250 58 274 58 q 319 58 350 87 q 381 116 400 158 q 418 199 426 245 q 435 291 435 326 q 435 361 428 401 q 421 441 404 476 q 386 510 358 533 q 329 556 285 556 z m 428 -5 q 441 -5 450 -14 q 458 -23 458 -35 q 458 -54 441 -62 q 363 -100 284 -100 q 237 -100 190 -86 q 142 -71 104 -43 q 65 -15 40 26 q 14 66 12 117 q 11 129 20 138 q 28 147 41 148 q 53 149 62 140 q 71 132 72 119 q 74 81 94 52 q 115 22 146 2 q 176 -19 212 -30 q 249 -40 283 -40 q 349 -40 415 -8 q 421 -5 428 -5 z"},"w":{"x_min":0,"x_max":496,"ha":496,"o":"m 16 199 q 16 215 18 237 q 21 259 28 280 q 36 300 49 314 q 62 328 84 328 q 96 328 104 322 q 113 317 118 308 q 124 300 126 290 q 129 279 130 269 q 132 252 133 232 q 134 212 135 189 q 136 166 137 144 q 138 122 140 102 q 142 83 145 74 q 148 65 150 61 q 163 66 172 86 q 182 105 189 128 q 196 152 200 174 q 205 197 206 209 q 206 224 210 244 q 213 265 220 284 q 228 302 241 315 q 254 328 274 328 q 286 328 294 322 q 303 317 308 308 q 314 300 316 290 q 319 279 320 269 q 322 252 323 232 q 324 212 325 189 q 326 166 327 144 q 328 122 330 102 q 332 83 335 74 q 338 65 340 61 q 356 69 370 100 q 384 130 395 166 q 406 203 413 238 q 420 273 423 291 q 425 302 433 310 q 441 317 452 317 q 465 317 474 308 q 482 299 482 287 q 482 275 478 256 q 475 238 470 218 q 466 199 461 181 q 456 163 453 152 q 447 133 438 106 q 428 80 414 56 q 400 33 380 16 q 361 0 336 0 q 301 0 274 21 q 248 42 233 72 q 227 59 218 46 q 210 33 200 23 q 189 13 176 6 q 162 0 146 0 q 109 0 84 20 q 59 40 44 70 q 29 100 22 134 q 16 169 16 199 z"},"-":{"x_min":0,"x_max":215,"ha":215,"o":"m 171 209 q 163 208 142 206 q 120 205 94 205 q 78 205 63 206 q 48 207 37 210 q 27 213 22 221 q 16 229 16 239 q 16 251 25 260 q 34 269 46 269 q 52 269 55 268 q 60 266 70 266 q 80 265 92 265 q 110 265 130 266 q 149 266 165 268 q 166 269 168 269 q 180 269 189 260 q 198 251 198 239 q 198 227 190 218 q 182 210 171 209 z"},"E":{"x_min":0,"x_max":398,"ha":398,"o":"m 201 0 q 149 0 102 16 q 83 22 69 42 q 55 63 46 91 q 36 119 30 152 q 24 185 20 216 q 17 247 16 274 q 15 300 15 315 q 15 350 18 385 q 20 420 28 455 q 39 508 53 540 q 67 573 90 591 q 112 609 146 616 q 179 622 229 622 q 270 622 304 618 q 337 615 345 613 q 356 611 362 603 q 367 595 367 584 q 367 572 358 563 q 350 554 337 554 q 335 554 334 554 q 332 555 330 555 q 322 557 293 560 q 264 562 229 562 q 220 562 206 562 q 192 561 177 560 q 162 558 148 555 q 135 552 127 547 q 127 541 127 534 q 127 526 128 515 q 128 416 131 317 l 159 317 q 170 317 188 318 q 205 318 224 320 q 242 321 258 323 q 273 325 279 329 q 288 335 297 335 q 310 335 318 326 q 327 318 327 305 q 327 290 315 281 q 303 272 283 268 q 263 263 240 260 q 218 258 196 258 q 174 257 158 257 l 132 257 q 132 163 138 68 q 154 63 170 62 q 185 60 200 60 q 248 60 285 74 q 322 87 340 100 q 349 106 358 106 q 370 106 379 97 q 388 88 388 76 q 388 57 366 43 q 343 29 312 20 q 281 10 250 5 q 219 0 201 0 z"},"s":{"x_min":0,"x_max":302,"ha":302,"o":"m 147 0 q 130 0 106 4 q 83 7 62 14 q 41 21 26 32 q 11 44 11 60 q 11 73 20 82 q 29 90 41 90 q 52 90 59 84 q 70 76 92 68 q 115 60 137 60 q 154 60 165 67 q 176 74 176 92 q 176 103 171 111 q 166 119 158 124 q 150 130 140 135 q 129 140 118 145 q 104 151 90 159 q 75 167 63 178 q 51 188 43 202 q 35 216 35 233 q 35 258 51 276 q 67 293 90 304 q 113 315 138 320 q 163 325 182 325 q 191 325 204 324 q 216 322 228 318 q 239 314 247 306 q 255 298 255 286 q 255 274 246 265 q 238 256 225 256 q 217 256 202 261 q 188 266 174 266 q 165 266 159 262 q 153 258 153 247 q 153 227 171 216 q 189 206 210 195 q 240 180 265 158 q 290 136 290 98 q 290 70 275 51 q 260 32 238 20 q 216 9 191 4 q 166 0 147 0 z"},">":{"x_min":0,"x_max":254,"ha":254,"o":"m 37 192 q 71 207 106 222 q 140 238 172 256 q 140 275 106 290 q 71 306 36 320 q 18 328 18 348 q 18 360 27 369 q 36 378 48 378 q 56 378 79 368 q 102 359 128 346 q 153 334 176 322 q 199 309 208 304 q 224 294 237 283 q 250 272 250 255 q 250 238 238 228 q 225 217 208 207 q 199 202 176 190 q 153 178 127 166 q 101 154 78 144 q 56 135 48 135 q 36 135 27 144 q 18 152 18 165 q 18 174 23 182 q 28 189 37 192 z"},"l":{"x_min":0,"x_max":145,"ha":145,"o":"m 14 257 q 14 291 14 331 q 15 371 18 412 q 21 453 26 492 q 32 532 41 565 q 46 582 56 600 q 67 617 89 617 q 109 617 114 601 q 120 585 122 569 q 127 512 128 456 q 128 400 128 343 q 128 275 127 198 q 126 121 118 54 q 117 45 115 36 q 113 26 109 18 q 105 10 98 5 q 91 0 80 0 q 69 0 57 8 q 45 15 36 38 q 28 58 24 87 q 19 116 17 147 q 15 178 14 207 q 14 236 14 257 z"},"8":{"x_min":0,"x_max":384,"ha":384,"o":"m 44 452 q 44 487 58 517 q 72 547 96 569 q 119 591 150 604 q 181 616 216 616 q 248 616 272 601 q 297 586 313 562 q 329 539 337 510 q 345 481 345 453 q 345 415 332 378 q 318 341 286 318 q 328 296 350 255 q 371 214 371 168 q 371 131 358 100 q 345 69 322 46 q 299 24 268 12 q 236 0 199 0 q 162 0 128 10 q 94 21 68 42 q 42 63 27 94 q 12 125 12 166 q 12 217 38 261 q 65 305 110 330 q 77 350 60 382 q 44 414 44 452 z m 202 60 q 251 61 281 90 q 311 119 311 168 q 311 187 306 206 q 300 224 288 240 q 276 255 258 264 q 240 274 216 275 q 199 277 191 290 q 174 284 162 270 q 149 255 142 236 q 134 218 130 198 q 127 179 127 163 q 127 145 130 126 q 134 108 143 94 q 152 79 166 70 q 181 60 202 60 z m 159 449 q 159 435 161 420 q 163 406 169 394 q 175 382 186 374 q 196 367 213 367 q 224 363 226 362 q 228 362 229 361 q 245 364 256 374 q 266 383 272 396 q 279 409 282 424 q 285 438 285 453 q 285 468 282 486 q 278 504 270 520 q 262 535 249 546 q 236 556 217 556 q 201 556 190 544 q 179 532 172 515 q 165 498 162 480 q 159 461 159 449 z"},"\\":{"x_min":0,"x_max":261,"ha":261,"o":"m 2 606 q 2 618 11 627 q 20 636 32 636 q 46 636 56 623 q 59 619 69 592 q 79 566 94 525 q 109 484 127 433 q 145 382 164 328 q 182 275 200 224 q 217 172 230 130 q 244 89 252 62 q 260 35 260 30 q 260 18 251 9 q 242 0 230 0 q 207 0 200 23 q 199 29 190 56 q 181 83 168 124 q 155 164 138 213 q 122 262 105 312 q 88 363 72 412 q 55 460 42 498 q 28 536 19 560 q 10 585 8 588 q 2 596 2 606 z"},"e":{"x_min":0,"x_max":308,"ha":308,"o":"m 13 160 q 13 194 24 224 q 35 255 56 278 q 76 301 105 314 q 134 328 170 328 q 209 328 239 306 q 269 284 269 242 q 269 216 258 195 q 246 174 227 160 q 208 145 185 137 q 162 129 138 129 q 135 129 129 131 q 130 124 133 112 q 136 99 141 88 q 146 77 153 68 q 160 60 170 60 q 192 60 211 73 q 230 86 239 106 q 247 124 266 124 q 279 124 288 115 q 296 106 296 94 q 296 90 294 82 q 293 81 286 68 q 279 55 264 40 q 249 25 226 12 q 203 0 171 0 q 135 0 106 12 q 77 24 56 46 q 36 67 24 96 q 13 126 13 160 z m 170 268 q 160 268 152 258 q 145 249 140 236 q 135 222 132 209 q 129 196 128 188 q 131 189 138 189 q 173 189 191 206 q 209 224 209 241 q 209 257 196 262 q 183 268 170 268 z"},"b":{"x_min":0,"x_max":354,"ha":354,"o":"m 17 239 q 17 274 18 316 q 18 358 21 401 q 24 444 30 486 q 35 528 44 562 q 49 579 60 597 q 70 615 92 615 q 106 615 114 606 q 121 597 123 584 q 127 556 128 524 q 130 491 130 458 q 131 424 131 391 q 131 358 131 329 q 131 317 131 305 q 131 293 130 282 q 151 289 174 289 q 210 289 242 276 q 274 263 298 240 q 322 216 336 185 q 351 154 351 118 q 351 64 317 32 q 283 -1 229 -1 q 194 -1 168 20 q 142 40 124 66 q 123 54 122 44 q 122 34 121 26 q 120 17 118 8 q 116 -2 112 -10 q 108 -19 101 -24 q 94 -30 83 -30 q 72 -30 60 -22 q 47 -15 39 9 q 31 30 26 60 q 22 91 20 124 q 18 156 18 186 q 17 217 17 239 z m 227 59 q 230 59 232 64 q 234 69 235 76 q 236 82 236 88 q 236 95 236 99 q 236 111 232 133 q 228 155 220 176 q 213 198 201 214 q 189 229 174 229 q 153 229 130 216 q 130 210 130 204 q 129 198 129 192 q 134 179 144 156 q 153 133 166 112 q 179 90 195 74 q 211 59 227 59 z"},"%":{"x_min":0,"x_max":352,"ha":352,"o":"m 52 30 q 52 35 60 62 q 68 89 82 130 q 95 172 112 224 q 130 275 148 328 q 166 382 184 433 q 202 484 217 525 q 232 566 242 592 q 253 619 256 623 q 266 636 280 636 q 292 636 301 627 q 310 618 310 606 q 310 596 304 588 q 302 585 293 560 q 284 536 270 498 q 257 460 240 412 q 224 363 207 312 q 190 262 174 213 q 157 164 144 124 q 130 83 122 56 q 113 29 111 23 q 109 12 101 6 q 93 0 82 0 q 70 0 61 9 q 52 18 52 30 z m 182 81 q 182 99 188 116 q 195 133 206 146 q 217 159 232 167 q 248 175 267 175 q 284 175 298 168 q 311 160 320 148 q 329 136 334 121 q 338 106 338 91 q 338 55 315 28 q 292 1 254 1 q 219 1 200 26 q 182 50 182 81 z m 169 546 q 169 509 146 482 q 122 455 84 455 q 49 455 31 480 q 13 504 13 535 q 13 553 19 570 q 25 587 36 600 q 48 613 64 621 q 79 629 98 629 q 115 629 128 622 q 141 614 150 602 q 159 591 164 576 q 169 561 169 546 z m 71 535 q 71 527 74 520 q 77 514 84 514 q 97 514 104 524 q 111 533 111 545 q 111 553 108 562 q 105 570 97 570 q 85 570 78 559 q 71 548 71 535 z m 267 116 q 254 116 248 104 q 241 93 241 81 q 241 73 244 66 q 246 60 254 60 q 267 60 274 70 q 280 79 280 91 q 280 99 278 108 q 275 116 267 116 z"},"m":{"x_min":0,"x_max":516,"ha":516,"o":"m 84 1 q 62 1 48 16 q 35 32 28 54 q 22 76 20 100 q 18 124 18 140 q 18 157 20 188 q 23 220 30 251 q 38 282 53 304 q 68 327 93 327 q 107 327 114 319 q 121 311 124 299 q 128 287 128 274 q 129 261 130 251 q 143 270 162 284 q 181 299 205 299 q 235 299 259 284 q 283 270 299 244 q 312 266 332 282 q 352 299 379 299 q 413 299 436 283 q 460 267 475 242 q 490 217 496 187 q 503 157 503 129 q 503 113 500 90 q 497 68 488 48 q 480 28 466 14 q 452 0 430 0 q 409 0 400 15 q 390 30 386 51 q 382 72 383 94 q 384 115 384 128 q 384 138 386 156 q 388 175 388 193 q 389 211 386 224 q 384 238 375 238 q 366 238 358 225 q 350 212 344 194 q 338 176 334 158 q 330 139 329 129 q 326 113 323 90 q 320 68 312 48 q 305 28 292 14 q 278 0 256 0 q 235 0 226 15 q 216 30 212 51 q 208 72 209 94 q 210 115 210 128 q 210 138 211 156 q 212 175 212 193 q 212 211 210 224 q 208 238 201 238 q 184 238 171 212 q 158 187 148 153 q 139 119 132 86 q 125 52 121 37 q 117 23 108 12 q 100 1 84 1 z"},"#":{"x_min":0,"x_max":350,"ha":350,"o":"m 164 387 l 223 387 q 235 444 246 486 q 256 529 261 538 q 269 553 287 553 q 299 553 308 544 q 317 536 317 523 q 317 514 313 509 q 311 504 303 470 q 295 437 284 389 q 292 389 298 390 q 304 390 308 390 q 309 391 311 391 q 323 391 332 382 q 341 373 341 361 q 341 349 333 340 q 325 332 314 331 q 311 330 300 330 q 288 330 271 329 q 268 314 265 298 q 262 283 259 268 q 276 269 288 270 q 301 270 308 270 q 309 271 311 271 q 323 271 332 262 q 341 253 341 241 q 341 229 333 220 q 325 212 314 211 q 310 210 292 210 q 273 209 246 208 q 235 155 228 116 q 221 77 219 67 q 217 56 209 48 q 201 40 189 40 q 177 40 168 49 q 159 58 159 70 q 159 73 160 74 q 160 78 167 116 q 174 153 185 207 l 139 207 l 126 207 q 115 154 108 115 q 101 76 99 67 q 97 56 89 48 q 81 40 69 40 q 57 40 48 49 q 39 58 39 70 q 39 73 40 74 q 40 78 47 116 q 54 154 65 208 q 53 209 44 210 q 35 210 30 212 q 20 215 14 223 q 9 231 9 241 q 9 253 18 262 q 27 271 39 271 q 45 271 48 270 q 52 269 77 267 q 80 282 84 297 q 87 312 90 327 q 69 328 54 329 q 38 330 30 332 q 20 335 14 343 q 9 351 9 361 q 9 373 18 382 q 27 391 39 391 q 45 391 48 390 q 52 388 66 388 q 81 387 102 387 q 115 444 126 486 q 136 529 141 538 q 149 553 167 553 q 179 553 188 544 q 197 536 197 523 q 197 514 193 509 q 191 504 183 470 q 175 436 164 387 z m 141 267 l 197 267 q 200 282 204 297 q 207 312 210 327 l 151 327 q 148 312 144 297 q 141 282 138 267 z"},",":{"x_min":0,"x_max":108,"ha":108,"o":"m 41 -78 q 35 -65 30 -48 q 24 -32 20 -14 q 15 4 12 21 q 10 38 10 52 q 11 64 20 72 q 29 81 42 80 q 54 79 62 70 q 71 61 70 49 q 70 42 72 29 q 75 16 79 1 q 83 -14 88 -30 q 93 -46 97 -58 q 99 -64 99 -68 q 99 -81 90 -90 q 81 -98 69 -98 q 48 -98 41 -78 z"},"n":{"x_min":0,"x_max":340,"ha":340,"o":"m 209 128 q 209 138 210 156 q 211 175 210 193 q 210 211 208 224 q 206 238 200 238 q 189 238 180 226 q 170 214 162 195 q 154 176 148 152 q 141 129 136 107 q 130 85 126 66 q 123 47 120 37 q 116 23 108 12 q 99 1 83 1 q 61 1 48 16 q 34 32 28 54 q 21 76 19 100 q 17 124 17 140 q 17 157 20 188 q 22 220 30 251 q 37 282 52 304 q 67 327 92 327 q 106 327 113 319 q 120 311 124 299 q 127 287 128 274 q 128 261 129 251 q 142 270 161 284 q 180 299 204 299 q 238 299 262 283 q 285 267 300 242 q 315 217 322 187 q 328 157 328 129 q 328 113 325 90 q 322 68 314 48 q 305 28 291 14 q 277 0 255 0 q 234 0 224 15 q 215 30 211 51 q 207 72 208 94 q 209 115 209 128 z"},"h":{"x_min":0,"x_max":332,"ha":332,"o":"m 39 39 q 31 59 26 88 q 22 117 20 148 q 18 179 18 208 q 17 237 17 258 q 17 292 18 332 q 18 372 21 413 q 24 454 30 494 q 35 533 44 566 q 49 583 60 600 q 70 617 92 617 q 112 617 118 602 q 123 586 125 570 q 130 513 130 457 q 131 401 131 344 q 131 320 130 298 q 130 275 130 253 q 143 271 162 285 q 180 299 204 299 q 238 299 262 283 q 285 267 300 242 q 315 217 322 187 q 328 157 328 129 q 328 113 325 90 q 322 68 314 48 q 305 28 291 14 q 277 0 255 0 q 239 0 228 12 q 218 21 214 38 q 210 56 209 76 q 208 96 208 116 q 209 135 209 149 q 209 157 210 172 q 210 187 210 202 q 210 216 208 227 q 206 238 200 238 q 184 238 171 215 q 158 192 148 162 q 137 132 130 102 q 124 72 121 58 q 120 49 118 39 q 116 29 112 20 q 108 12 101 6 q 94 1 83 1 q 72 1 60 8 q 48 16 39 39 z"},"z":{"x_min":0,"x_max":306,"ha":306,"o":"m 30 288 q 30 299 38 307 q 45 315 56 317 q 82 320 108 322 q 134 324 160 324 q 180 324 198 321 q 215 318 228 310 q 242 302 250 288 q 258 273 258 250 q 258 225 245 198 q 232 171 212 146 q 193 121 170 98 q 148 76 130 60 q 140 60 156 60 q 173 61 190 63 q 208 65 224 68 q 239 71 247 76 q 255 82 264 82 q 277 82 286 74 q 294 65 294 52 q 294 35 276 24 q 258 14 234 8 q 210 3 184 2 q 159 0 144 0 q 128 0 106 2 q 84 4 64 11 q 43 18 28 31 q 14 44 14 66 q 14 86 32 114 q 51 142 76 170 q 101 199 126 224 q 151 250 164 264 q 140 264 112 262 q 84 260 60 257 q 47 257 38 266 q 30 275 30 288 z"},"B":{"x_min":0,"x_max":481,"ha":481,"o":"m 469 163 q 469 121 449 90 q 429 59 399 39 q 369 19 334 9 q 298 -1 266 -1 q 228 -1 193 11 q 158 23 129 45 q 128 35 126 22 q 123 9 118 -2 q 114 -14 106 -22 q 98 -29 84 -29 q 78 -29 68 -26 q 58 -22 50 -9 q 43 3 38 26 q 32 48 28 76 q 25 103 23 133 q 21 163 20 191 q 19 219 18 242 q 18 266 18 280 q 18 309 18 348 q 19 386 22 426 q 25 467 30 505 q 35 543 44 570 q 49 587 60 602 q 71 618 92 618 q 111 618 118 603 q 124 588 126 572 q 127 569 127 566 q 127 563 128 559 q 158 586 198 602 q 237 619 279 619 q 309 619 338 610 q 368 600 392 582 q 416 563 431 536 q 446 508 446 472 q 446 440 434 413 q 422 386 402 363 q 382 340 356 321 q 330 302 302 287 q 335 287 365 280 q 395 274 418 260 q 441 245 455 222 q 469 198 469 163 z m 134 468 q 136 417 137 368 q 138 318 138 267 q 138 233 138 195 q 137 157 135 122 q 158 93 193 76 q 228 59 265 59 q 350 61 350 156 q 350 193 335 210 q 320 227 283 227 q 260 227 238 223 q 216 219 193 219 q 179 219 167 226 q 155 232 155 248 q 154 265 162 275 q 170 285 177 291 q 207 316 234 334 q 262 352 282 373 q 303 394 316 424 q 328 454 328 502 q 328 508 327 518 q 326 527 321 536 q 316 546 305 552 q 294 559 274 559 q 255 559 234 552 q 213 545 194 534 q 175 522 160 506 q 144 491 136 473 q 136 470 134 468 z"},"K":{"x_min":0,"x_max":454,"ha":454,"o":"m 50 19 q 40 36 34 71 q 27 106 24 146 q 20 186 19 223 q 18 260 18 279 q 18 308 18 346 q 19 385 22 426 q 25 466 30 504 q 35 542 44 569 q 49 586 60 602 q 71 617 92 617 q 112 617 118 602 q 124 587 126 571 q 130 545 132 514 q 135 484 136 452 q 137 421 137 390 q 137 360 137 333 q 162 350 197 378 q 232 405 264 436 q 295 468 317 502 q 339 536 339 566 q 339 578 348 587 q 357 596 369 596 q 382 596 390 587 q 399 578 399 566 q 399 526 376 486 q 354 446 320 410 q 287 373 249 342 q 211 311 179 289 q 196 280 222 264 q 247 248 276 227 q 305 206 334 182 q 364 158 388 134 q 411 109 426 86 q 441 62 441 42 q 441 25 430 12 q 419 -1 401 -1 q 390 -1 372 8 q 353 16 318 43 q 270 80 226 120 q 181 161 137 203 q 136 155 134 123 q 132 91 127 60 q 126 51 123 40 q 120 29 116 20 q 111 11 104 5 q 96 -1 84 -1 q 78 -1 68 2 q 58 6 50 19 z"},"R":{"x_min":0,"x_max":481,"ha":481,"o":"m 221 240 q 198 240 178 242 q 159 243 138 253 q 137 202 135 150 q 133 98 127 63 q 126 54 124 43 q 121 32 116 22 q 111 13 104 7 q 96 1 84 1 q 67 1 56 14 q 46 26 40 44 q 34 61 32 80 q 29 98 27 110 q 22 147 20 195 q 18 243 18 296 q 18 323 18 360 q 19 397 22 436 q 25 474 30 510 q 35 546 44 572 q 49 589 60 604 q 72 618 92 618 q 106 618 113 610 q 120 601 124 588 q 127 576 128 562 q 129 549 130 539 q 161 574 202 596 q 242 617 286 617 q 318 617 350 604 q 383 592 408 569 q 434 546 450 514 q 466 483 466 444 q 466 380 424 336 q 381 292 312 263 q 332 247 358 220 q 383 193 406 162 q 428 132 444 102 q 459 72 459 48 q 459 31 449 16 q 439 0 419 0 q 399 0 382 17 q 364 34 352 48 q 315 93 283 142 q 251 190 221 240 z m 205 299 q 243 299 270 311 q 298 323 316 344 q 333 366 342 396 q 350 425 350 460 q 350 476 348 493 q 345 510 338 524 q 331 539 318 548 q 304 557 282 557 q 261 557 240 548 q 220 539 202 524 q 183 510 168 491 q 152 472 140 452 q 139 449 135 445 q 136 415 136 384 q 137 354 138 324 q 166 299 205 299 z"},"T":{"x_min":0,"x_max":343,"ha":343,"o":"m 7 586 q 7 597 15 606 q 23 615 35 616 q 37 616 66 618 q 94 619 136 619 q 143 624 149 626 q 155 627 160 627 q 164 627 170 626 q 176 624 182 618 q 214 617 247 616 q 280 614 312 609 q 323 607 330 599 q 338 591 338 580 q 338 568 330 558 q 322 549 310 549 q 309 549 308 550 q 284 552 257 554 q 230 556 204 558 q 207 537 209 510 q 211 484 212 455 q 213 426 214 396 q 214 367 214 340 q 214 271 212 192 q 211 114 202 45 q 200 30 194 15 q 188 0 168 0 q 148 0 134 20 q 121 41 112 72 q 104 104 100 142 q 96 181 95 218 q 94 254 94 284 q 94 313 94 327 q 94 385 96 443 q 99 501 110 558 q 78 558 58 557 q 38 556 37 556 q 24 556 16 564 q 7 573 7 586 z"},"P":{"x_min":0,"x_max":479,"ha":479,"o":"m 18 295 q 18 322 18 358 q 19 395 22 434 q 25 472 30 508 q 35 545 44 571 q 49 588 60 602 q 72 617 92 617 q 111 617 118 602 q 124 588 126 572 q 127 565 128 556 q 129 547 130 536 q 163 571 208 594 q 252 616 301 616 q 331 616 362 606 q 394 597 419 580 q 444 562 460 536 q 476 511 476 478 q 476 426 454 382 q 432 338 396 306 q 359 274 312 256 q 265 238 215 238 q 173 238 138 253 q 138 228 137 202 q 136 175 135 150 q 134 124 132 102 q 130 79 127 61 q 126 52 124 41 q 121 30 116 21 q 111 12 104 6 q 96 0 84 0 q 78 0 68 4 q 59 7 51 19 q 39 36 32 74 q 26 112 23 154 q 20 196 19 236 q 18 275 18 295 z m 360 478 q 360 510 350 532 q 339 555 302 556 q 277 556 253 548 q 229 539 208 524 q 187 509 170 490 q 152 471 140 450 q 139 448 135 444 q 136 413 136 383 q 137 353 138 322 q 168 298 215 298 q 254 298 282 313 q 309 328 326 354 q 344 379 352 412 q 360 444 360 478 z"},"|":{"x_min":0,"x_max":91,"ha":91,"o":"m 18 -72 q 18 -68 17 -28 q 16 12 16 70 q 15 128 14 196 q 14 264 14 324 q 15 384 16 427 q 17 470 20 479 q 26 500 48 500 q 54 500 57 499 q 69 495 75 484 q 81 473 77 461 q 76 458 76 435 q 75 412 74 376 q 74 340 74 296 q 74 251 74 204 q 74 157 74 112 q 75 66 76 28 q 76 -9 76 -34 q 77 -59 78 -66 q 80 -78 72 -88 q 64 -97 51 -99 q 38 -99 29 -92 q 20 -85 18 -72 z"},"t":{"x_min":0,"x_max":239,"ha":239,"o":"m 170 569 q 173 550 173 513 q 175 479 176 435 q 176 391 176 343 l 176 323 q 190 324 193 326 q 199 328 203 328 q 216 328 224 319 q 233 310 233 298 q 233 287 227 280 q 221 273 212 270 q 204 266 194 264 q 184 263 175 262 q 175 210 174 158 q 172 106 166 54 q 165 45 163 36 q 161 26 157 18 q 153 10 146 5 q 139 0 128 0 q 118 0 106 8 q 93 15 84 38 q 77 58 72 87 q 68 116 66 147 q 63 178 62 207 q 62 236 62 257 l 62 261 q 50 261 42 262 q 34 262 33 262 q 21 263 12 272 q 4 281 5 294 q 6 306 15 314 q 24 323 37 322 q 40 322 44 322 q 49 321 63 321 q 64 349 65 380 q 66 412 69 444 q 72 476 77 507 q 82 538 90 565 q 92 574 96 583 q 100 592 106 600 q 111 607 119 612 q 127 617 137 617 q 158 617 164 601 q 169 585 170 569 z"},"M":{"x_min":0,"x_max":509,"ha":509,"o":"m 129 364 q 121 399 113 433 q 105 467 97 496 q 96 498 96 501 q 95 504 94 506 q 85 440 81 374 q 77 309 77 243 q 77 229 78 200 q 79 172 82 142 q 84 111 88 86 q 93 60 101 51 q 110 42 110 30 q 110 18 101 9 q 92 0 80 0 q 67 0 58 10 q 43 25 34 55 q 26 85 22 120 q 19 154 18 188 q 17 222 17 244 q 17 275 19 325 q 21 375 25 426 q 29 478 36 524 q 42 569 52 592 q 60 609 70 614 q 79 618 86 618 q 94 618 102 614 q 128 608 148 584 q 169 561 186 528 q 202 494 214 454 q 227 415 236 376 q 244 338 250 305 q 255 272 258 251 q 289 335 312 421 q 336 507 356 593 q 358 604 367 610 q 376 617 387 617 q 411 617 428 602 q 444 588 454 567 q 465 546 470 522 q 475 498 478 480 q 486 430 488 380 q 491 330 491 279 q 491 240 490 202 q 489 163 488 130 q 486 96 484 69 q 482 42 481 24 q 480 15 480 8 q 480 1 480 -1 q 479 -13 470 -22 q 462 -30 450 -30 q 442 -30 436 -27 q 427 -23 419 -14 q 411 -4 404 14 q 398 33 393 62 q 388 91 384 135 q 379 191 377 256 q 375 320 373 381 q 373 390 372 399 q 372 408 372 416 q 358 362 342 309 q 325 256 304 204 q 299 192 292 178 q 286 163 278 150 q 269 137 257 128 q 245 120 230 120 q 207 124 194 148 q 180 171 167 212 q 158 244 148 284 q 139 323 129 364 z"},"g":{"x_min":0,"x_max":331,"ha":331,"o":"m 168 -223 q 111 -223 76 -189 q 41 -155 41 -102 q 41 -90 50 -81 q 58 -72 71 -72 q 83 -72 92 -81 q 101 -90 101 -102 q 101 -130 118 -146 q 134 -163 157 -163 q 165 -163 174 -160 q 182 -158 189 -151 q 196 -144 201 -132 q 206 -119 206 -98 q 206 -58 187 -45 q 168 -32 133 -30 l 113 -30 q 99 -30 90 -22 q 80 -14 81 1 q 81 15 94 25 q 96 26 104 31 q 111 36 122 44 q 72 55 40 89 q 7 123 7 177 q 7 209 20 236 q 32 264 53 284 q 74 305 102 316 q 130 328 161 328 q 175 328 188 334 q 201 340 211 349 q 221 358 227 367 q 233 376 233 382 q 233 394 242 403 q 250 412 263 412 q 275 412 284 403 q 293 394 293 382 q 293 371 286 352 q 278 332 249 295 q 273 276 283 246 q 293 217 293 188 q 293 158 286 135 q 279 112 266 93 q 253 74 235 58 q 217 42 196 25 q 222 20 245 12 q 268 4 286 -10 q 303 -23 314 -42 q 324 -62 324 -90 q 324 -124 310 -149 q 295 -174 272 -190 q 249 -207 222 -215 q 194 -223 168 -223 z m 124 176 q 124 169 125 156 q 126 144 131 132 q 136 119 146 110 q 155 100 171 100 q 188 100 200 108 q 211 117 218 130 q 226 143 230 158 q 233 174 233 188 q 233 195 232 204 q 231 213 228 222 q 225 231 220 238 q 215 246 208 249 q 200 242 188 242 q 177 242 168 250 q 160 257 158 268 q 147 264 136 238 q 124 213 124 176 z"},"j":{"x_min":0,"x_max":148,"ha":148,"o":"m -79 -138 q -71 -138 -63 -143 q -44 -155 -34 -158 q -25 -160 -21 -160 q -7 -159 0 -133 q 7 -107 11 -59 q 17 21 19 100 q 21 180 27 260 q 28 270 30 282 q 31 293 35 304 q 39 314 46 321 q 54 328 67 328 q 82 328 92 318 q 101 309 108 296 q 114 282 118 267 q 121 252 123 241 q 126 225 128 202 q 131 180 132 156 q 134 131 135 106 q 136 82 136 62 q 136 26 130 -22 q 123 -70 106 -114 q 89 -158 60 -189 q 30 -220 -16 -220 q -29 -220 -45 -216 q -61 -213 -76 -206 q -90 -199 -100 -190 q -109 -180 -109 -168 q -109 -156 -100 -147 q -92 -138 -79 -138 z m 21 406 q 21 422 32 433 q 43 444 58 444 q 74 444 85 433 q 96 422 96 406 q 96 390 85 379 q 74 368 58 368 q 43 368 32 379 q 21 390 21 406 z"},"i":{"x_min":0,"x_max":140,"ha":140,"o":"m 114 36 q 110 22 102 11 q 93 0 77 0 q 55 0 42 16 q 28 31 22 53 q 15 75 13 99 q 11 123 11 139 q 11 156 14 188 q 16 219 24 250 q 31 281 46 304 q 61 327 86 327 q 101 327 109 316 q 117 306 119 292 q 123 264 124 236 q 125 208 125 180 q 125 168 125 148 q 125 129 124 108 q 123 87 120 68 q 118 48 114 36 z m 114 406 q 114 390 103 379 q 92 368 76 368 q 60 368 49 379 q 38 390 38 406 q 38 422 49 433 q 60 444 76 444 q 92 444 103 433 q 114 422 114 406 z"},"y":{"x_min":0,"x_max":341,"ha":341,"o":"m 174 -221 q 164 -221 148 -218 q 132 -214 117 -208 q 102 -201 92 -191 q 81 -181 81 -169 q 81 -157 90 -148 q 99 -139 111 -139 q 119 -139 128 -144 q 140 -152 152 -156 q 165 -161 169 -161 q 177 -161 182 -148 q 188 -134 192 -114 q 197 -93 200 -68 q 204 -43 206 -19 q 208 5 209 24 q 210 44 210 53 q 198 33 179 16 q 160 0 135 0 q 99 0 76 18 q 52 37 38 65 q 23 93 17 126 q 11 159 11 187 q 11 204 14 228 q 16 252 24 274 q 32 296 46 312 q 60 328 83 328 q 104 328 114 311 q 124 294 128 272 q 131 249 130 226 q 130 202 130 188 q 130 175 130 154 q 129 133 130 112 q 130 92 132 77 q 134 62 139 62 q 148 62 157 74 q 166 86 174 105 q 183 124 190 148 q 197 172 202 195 q 208 218 212 238 q 216 258 218 270 q 220 279 222 289 q 224 299 228 308 q 232 316 239 322 q 246 327 257 327 q 274 327 286 312 q 297 298 304 276 q 312 253 316 226 q 321 198 323 172 q 325 146 326 124 q 326 102 326 91 q 326 67 324 34 q 322 1 316 -34 q 311 -68 300 -102 q 290 -135 274 -162 q 257 -188 232 -204 q 208 -221 174 -221 z"},"@":{"x_min":0,"x_max":536,"ha":536,"o":"m 307 475 q 262 475 228 456 q 195 436 172 404 q 149 372 138 332 q 126 291 126 249 q 126 209 136 171 q 147 133 168 104 q 189 74 222 56 q 254 38 298 38 q 347 38 411 73 q 416 77 425 77 q 438 77 446 68 q 455 59 455 47 q 455 29 440 21 q 366 -22 298 -22 q 238 -22 186 -3 q 133 16 95 52 q 57 87 35 138 q 13 188 13 250 q 13 312 36 364 q 58 417 97 455 q 136 493 190 514 q 244 535 307 535 q 361 535 402 514 q 442 492 468 456 q 495 420 508 374 q 522 328 522 279 q 522 257 518 228 q 513 199 502 173 q 491 147 472 129 q 454 111 425 111 q 414 111 398 118 q 381 125 367 150 q 347 121 325 112 q 303 104 286 104 q 256 104 234 116 q 211 127 196 146 q 182 165 174 190 q 167 214 167 241 q 167 273 176 304 q 186 336 204 361 q 223 386 250 402 q 277 418 312 418 q 337 418 354 407 q 372 396 384 378 q 395 360 400 338 q 406 317 406 296 q 406 278 389 269 q 397 267 406 260 q 415 252 421 236 q 425 227 427 217 q 429 207 431 196 q 432 191 432 186 q 433 181 435 176 q 444 185 453 211 q 462 237 462 279 q 462 315 453 350 q 444 386 426 414 q 407 441 378 458 q 348 475 307 475 z m 313 358 q 299 357 290 341 q 280 325 274 304 q 268 283 266 262 q 263 241 263 232 q 263 228 264 217 q 265 206 268 194 q 270 182 274 173 q 279 164 286 164 q 306 164 319 186 q 332 209 342 236 q 345 246 350 254 q 354 263 364 268 q 356 272 351 279 q 346 286 346 296 q 346 326 336 342 q 325 358 313 358 z"},".":{"x_min":0,"x_max":104,"ha":104,"o":"m 14 38 q 14 54 25 65 q 36 76 52 76 q 68 76 79 65 q 90 54 90 38 q 90 22 79 11 q 68 0 52 0 q 36 0 25 11 q 14 22 14 38 z"},"p":{"x_min":0,"x_max":352,"ha":352,"o":"m 130 -32 q 130 -63 128 -96 q 127 -130 122 -158 q 117 -186 108 -204 q 98 -222 82 -222 q 64 -222 52 -207 q 40 -192 32 -168 q 25 -145 22 -116 q 18 -87 17 -59 q 16 -31 16 -6 q 16 18 16 33 q 16 52 16 83 q 17 114 20 150 q 22 186 26 222 q 31 259 40 288 q 48 318 60 336 q 73 355 91 355 q 104 355 111 348 q 118 340 121 328 q 124 317 125 304 q 126 292 126 282 q 150 291 174 291 q 209 291 241 278 q 273 265 297 242 q 321 218 336 187 q 350 156 350 120 q 350 65 316 32 q 282 0 228 0 q 196 0 172 18 q 147 36 130 59 z m 173 231 q 154 231 129 217 l 129 192 q 134 179 144 156 q 153 134 166 112 q 179 91 194 76 q 210 60 226 60 q 232 60 234 73 q 235 86 235 96 q 235 108 232 130 q 228 153 220 176 q 213 198 201 214 q 189 231 173 231 z"},"X":{"x_min":0,"x_max":453,"ha":453,"o":"m 276 292 q 298 252 318 216 q 338 179 354 147 q 372 113 382 92 q 392 71 396 60 q 401 48 402 43 q 403 38 403 35 q 403 15 388 6 q 380 0 368 0 q 357 0 344 7 q 328 16 308 38 q 289 61 270 88 q 250 114 233 140 q 216 167 205 184 q 182 149 162 119 q 141 89 125 66 q 109 44 100 30 q 90 16 88 14 q 78 1 64 1 q 51 1 42 10 q 34 19 34 31 q 34 42 39 49 q 39 49 50 64 q 61 79 79 105 q 97 131 120 166 q 144 201 171 241 q 161 258 146 285 q 130 312 113 344 q 96 376 78 410 q 61 444 47 476 q 33 508 24 534 q 16 561 16 578 q 16 594 25 607 q 34 620 51 620 q 59 620 67 616 q 71 614 76 610 q 82 605 90 594 q 99 584 112 565 q 126 546 145 515 q 165 483 190 441 q 216 399 242 352 q 285 420 322 486 q 360 551 380 601 q 388 620 408 620 q 420 620 429 611 q 438 602 438 590 q 438 581 428 558 q 418 535 402 505 q 386 475 367 442 q 348 409 330 379 q 312 349 297 326 q 282 302 276 292 z"},"*":{"x_min":0,"x_max":234,"ha":234,"o":"m 55 598 q 60 596 68 590 q 76 583 85 575 q 86 588 87 598 q 88 608 90 614 q 96 635 118 635 q 131 635 140 626 q 148 618 148 605 q 148 599 147 596 q 145 590 145 572 q 165 591 178 598 q 185 602 192 602 q 205 602 214 593 q 222 584 222 572 q 222 554 207 546 q 202 543 189 531 q 176 519 159 502 q 181 479 197 461 q 213 443 217 439 q 224 430 224 420 q 224 408 215 399 q 206 390 194 390 q 179 390 170 401 q 166 406 160 413 q 154 420 146 429 q 146 417 146 408 q 147 399 148 393 q 148 379 140 370 q 132 360 118 360 q 107 360 98 368 q 90 376 88 387 q 88 390 88 400 q 87 411 86 427 q 70 409 63 401 q 54 390 40 390 q 28 390 19 399 q 10 408 10 420 q 10 432 17 439 q 20 443 36 461 q 53 479 75 502 q 58 519 45 531 q 32 543 27 546 q 11 554 11 572 q 11 584 20 593 q 29 602 41 602 q 50 602 55 598 z"},"Y":{"x_min":0,"x_max":422,"ha":422,"o":"m 141 0 q 128 0 120 8 q 111 17 111 30 q 111 43 120 52 q 128 60 140 60 q 147 60 156 72 q 164 84 172 100 q 181 117 188 133 q 194 149 197 156 q 182 181 162 216 q 143 250 122 289 q 101 328 81 369 q 61 410 45 450 q 29 489 20 524 q 10 560 10 586 q 10 598 18 607 q 27 616 40 616 q 53 616 62 607 q 70 598 70 586 q 70 558 85 514 q 100 471 123 422 q 146 372 172 322 q 199 271 223 229 q 240 280 254 334 q 269 387 282 435 q 284 444 288 460 q 292 477 297 497 q 302 517 309 538 q 316 559 324 576 q 333 594 342 605 q 352 616 364 616 q 379 616 388 608 q 398 601 404 590 q 409 578 410 564 q 412 551 412 539 q 412 508 403 456 q 394 404 376 344 q 359 284 335 223 q 311 162 280 112 q 250 63 215 32 q 180 0 141 0 z"},"c":{"x_min":0,"x_max":305,"ha":305,"o":"m 131 149 q 131 140 132 125 q 134 110 138 96 q 142 81 149 70 q 156 60 168 60 q 190 60 209 73 q 228 86 236 106 q 244 124 264 124 q 276 124 285 115 q 294 106 294 94 q 294 88 291 82 q 291 81 284 68 q 276 55 262 40 q 247 25 224 12 q 201 0 169 0 q 135 0 106 11 q 78 22 57 42 q 36 62 24 90 q 13 118 13 152 q 13 187 26 218 q 38 250 60 274 q 81 298 111 312 q 141 326 177 326 q 186 326 199 324 q 212 321 224 316 q 237 310 246 302 q 254 293 254 281 q 254 269 245 260 q 236 252 224 252 q 214 252 209 256 q 192 266 177 266 q 164 266 155 252 q 146 237 141 218 q 136 198 134 178 q 131 159 131 149 z"},"!":{"x_min":0,"x_max":144,"ha":144,"o":"m 116 144 q 115 135 113 126 q 111 116 107 108 q 103 100 96 95 q 89 90 78 90 q 68 90 56 98 q 43 105 34 128 q 22 160 16 208 q 11 255 11 309 q 11 345 13 382 q 15 418 19 452 q 23 485 28 514 q 34 544 40 565 q 42 574 46 583 q 50 592 56 600 q 61 607 69 612 q 77 617 87 617 q 107 617 113 601 q 119 585 120 569 q 125 520 127 469 q 129 418 129 367 q 129 310 126 254 q 123 198 116 144 z m 41 39 q 41 54 52 65 q 63 76 78 76 q 94 76 105 65 q 116 54 116 39 q 116 23 105 12 q 94 1 78 1 q 63 1 52 12 q 41 23 41 39 z"},"/":{"x_min":0,"x_max":261,"ha":261,"o":"m 2 30 q 2 35 10 62 q 18 89 32 130 q 45 172 62 224 q 80 275 98 328 q 116 382 134 433 q 152 484 167 525 q 182 566 192 592 q 202 619 205 623 q 215 636 230 636 q 242 636 251 627 q 260 618 260 606 q 260 596 254 588 q 252 585 243 560 q 234 536 220 498 q 207 460 190 412 q 173 363 156 312 q 139 262 122 213 q 106 164 93 124 q 80 83 72 56 q 63 29 61 23 q 59 12 51 6 q 43 0 32 0 q 20 0 11 9 q 2 18 2 30 z"},"[":{"x_min":0,"x_max":273,"ha":273,"o":"m 17 62 q 17 80 16 100 q 16 121 16 144 q 16 164 16 198 q 17 233 18 274 q 20 315 22 359 q 25 403 29 443 q 33 483 38 515 q 43 547 50 564 q 58 584 80 596 q 101 609 127 616 q 153 623 180 626 q 208 629 228 629 q 240 629 248 620 q 257 612 257 599 q 258 587 249 578 q 240 569 228 569 q 221 569 210 568 q 199 567 188 564 q 177 561 168 556 q 159 551 156 544 q 151 531 146 502 q 142 474 139 438 q 136 401 134 360 q 132 319 131 280 q 130 240 130 206 q 129 172 129 151 q 129 137 129 111 q 129 85 130 58 q 131 31 133 8 q 135 -16 139 -25 q 142 -28 156 -28 q 173 -28 190 -24 q 208 -19 225 -13 q 228 -11 235 -11 q 248 -11 256 -20 q 265 -29 265 -41 q 265 -61 246 -69 q 219 -80 184 -87 q 149 -94 120 -94 q 57 -94 36 -56 q 30 -48 25 -24 q 20 0 17 62 z"},"6":{"x_min":0,"x_max":370,"ha":370,"o":"m 130 313 q 149 321 169 324 q 189 328 207 328 q 243 328 271 314 q 299 299 319 275 q 339 251 350 220 q 360 189 360 156 q 360 81 311 40 q 262 0 182 0 q 130 0 97 17 q 64 34 46 64 q 27 95 20 137 q 14 179 14 228 q 14 260 17 301 q 20 342 28 385 q 36 428 50 470 q 65 511 88 544 q 112 577 146 597 q 179 617 225 617 q 234 617 246 616 q 259 615 270 612 q 282 608 290 601 q 298 594 298 582 q 298 570 289 561 q 280 552 268 552 q 263 552 261 553 q 246 557 229 557 q 208 557 192 542 q 177 528 166 506 q 156 483 149 456 q 142 428 138 401 q 134 374 132 350 q 130 327 130 313 z m 212 268 q 190 268 175 258 q 160 248 150 232 q 141 217 136 198 q 132 179 132 161 q 132 144 136 126 q 140 108 150 94 q 159 79 174 70 q 190 61 212 61 q 251 61 276 89 q 300 117 300 159 q 300 179 294 198 q 288 218 277 234 q 266 249 250 258 q 233 268 212 268 z"},"r":{"x_min":0,"x_max":320,"ha":320,"o":"m 201 151 q 201 159 202 174 q 203 189 204 203 q 205 217 205 228 q 205 238 203 238 q 187 238 174 213 q 161 188 150 154 q 140 121 132 88 q 125 54 120 36 q 116 22 108 11 q 99 0 83 0 q 61 0 48 16 q 34 31 28 53 q 21 75 19 99 q 17 123 17 139 q 17 156 20 188 q 22 219 30 250 q 37 281 52 304 q 67 327 92 327 q 106 327 113 318 q 120 310 124 298 q 127 286 128 273 q 128 260 129 251 q 143 270 162 284 q 180 298 205 298 q 254 298 284 267 q 314 236 314 187 q 314 172 310 155 q 306 138 298 124 q 289 110 276 100 q 263 91 245 91 q 219 91 210 110 q 201 129 201 151 z"},"2":{"x_min":0,"x_max":392,"ha":392,"o":"m 252 557 q 251 557 250 558 q 248 558 245 558 q 237 558 222 556 q 207 553 186 544 q 165 535 138 518 q 112 501 81 472 q 73 464 61 464 q 48 464 40 472 q 31 481 31 493 q 31 506 40 515 q 93 565 146 592 q 198 618 245 618 q 289 618 314 596 q 340 573 340 529 q 340 510 335 489 q 330 468 322 448 q 315 427 306 408 q 297 389 289 372 q 260 315 224 257 q 187 199 155 150 q 138 125 123 102 q 108 79 99 63 q 116 60 138 60 q 154 60 182 63 q 210 66 240 70 q 270 75 296 82 q 322 89 333 96 q 341 102 350 102 q 363 102 372 93 q 380 84 380 72 q 380 58 365 47 q 350 36 326 28 q 303 20 274 14 q 245 9 218 6 q 192 3 170 2 q 148 0 138 0 q 120 0 98 2 q 76 5 56 12 q 37 20 24 35 q 11 50 11 74 q 11 100 36 146 q 62 193 113 274 q 140 319 169 366 q 198 414 219 456 q 223 465 229 477 q 235 489 240 502 q 245 516 249 528 q 253 541 253 551 q 253 553 252 554 q 252 556 252 557 z"},"{":{"x_min":0,"x_max":244,"ha":244,"o":"m 236 -50 q 236 -65 220 -74 q 205 -84 185 -90 q 165 -95 144 -96 q 124 -98 113 -98 q 94 -98 76 -94 q 58 -89 44 -79 q 31 -69 23 -54 q 15 -38 15 -16 q 15 6 22 29 q 30 52 40 77 q 48 96 55 117 q 62 138 62 153 q 62 158 60 164 q 58 166 56 168 q 53 170 51 172 q 38 183 24 198 q 10 213 11 233 q 12 250 20 263 q 28 276 36 287 q 45 298 51 308 q 57 318 57 330 q 57 344 49 360 q 30 399 30 442 q 30 473 42 505 q 54 537 75 564 q 96 590 124 606 q 153 623 186 624 q 200 624 211 617 q 222 610 222 594 q 222 582 214 574 q 205 565 192 565 q 178 565 167 554 q 156 542 149 526 q 142 509 138 492 q 135 474 135 463 q 135 446 139 426 q 143 407 153 386 q 167 357 167 330 q 167 302 156 283 q 144 264 134 251 q 131 247 128 242 q 124 237 122 234 q 125 230 130 226 q 136 221 139 218 q 156 204 164 190 q 172 176 172 153 q 172 129 164 104 q 156 80 146 54 q 138 35 132 16 q 125 -3 125 -17 q 125 -28 131 -30 q 137 -31 146 -31 q 158 -31 171 -28 q 184 -26 196 -22 q 202 -20 206 -20 q 219 -20 228 -29 q 236 -38 236 -50 z"},"9":{"x_min":0,"x_max":370,"ha":370,"o":"m 72 35 q 72 52 84 58 q 95 65 109 65 q 118 63 126 62 q 133 60 141 60 q 162 60 178 74 q 193 89 204 112 q 214 134 221 162 q 228 189 232 216 q 237 244 238 268 q 240 291 241 305 q 221 297 201 293 q 181 289 163 289 q 127 289 99 304 q 71 318 51 342 q 31 366 20 397 q 10 428 10 462 q 10 537 59 577 q 108 617 188 617 q 241 617 274 600 q 306 583 324 552 q 343 522 350 480 q 356 438 356 389 q 356 358 353 317 q 350 276 342 232 q 334 189 320 148 q 305 106 282 73 q 258 40 224 20 q 191 0 145 0 q 136 0 124 1 q 111 2 100 6 q 88 9 80 16 q 72 23 72 35 z m 70 459 q 70 439 76 420 q 82 400 93 384 q 104 368 121 358 q 138 349 159 349 q 180 349 195 359 q 210 369 220 384 q 229 400 234 419 q 238 438 238 456 q 238 473 234 491 q 230 509 220 524 q 211 538 196 547 q 181 556 158 556 q 119 556 94 528 q 70 501 70 459 z"}," ":{"x_min":0,"x_max":405,"ha":405,"o":""},"I":{"x_min":0,"x_max":351,"ha":351,"o":"m 21 585 q 21 600 30 608 q 40 615 54 615 q 64 614 77 614 q 88 613 102 612 q 117 612 135 612 q 145 612 150 613 q 156 617 162 618 q 168 619 172 619 q 181 619 189 614 q 210 615 232 616 q 255 618 278 621 q 279 622 282 622 q 295 622 304 613 q 312 604 312 592 q 312 581 304 572 q 297 564 286 562 q 266 559 246 558 q 227 556 208 555 q 215 486 216 417 q 218 348 218 279 q 218 252 218 222 q 217 193 216 164 q 215 135 213 108 q 211 82 208 61 q 234 63 259 64 q 284 66 308 69 q 309 69 310 70 q 311 70 312 70 q 325 70 334 61 q 342 52 342 40 q 342 29 334 20 q 327 12 316 10 q 284 5 251 4 q 218 2 186 1 q 180 -5 174 -6 q 168 -8 164 -8 q 159 -8 153 -6 q 147 -5 140 0 q 98 1 70 2 q 41 3 39 3 q 27 5 19 14 q 11 22 11 33 q 11 47 20 55 q 30 63 43 63 q 44 63 63 62 q 82 61 114 61 q 103 118 100 176 q 98 235 98 292 q 98 355 101 422 q 104 489 118 552 q 55 554 48 556 q 37 557 29 566 q 21 574 21 585 z"},"H":{"x_min":0,"x_max":437,"ha":437,"o":"m 303 317 q 302 338 302 359 q 301 380 301 400 q 301 420 302 448 q 302 476 304 506 q 307 535 312 562 q 316 588 325 603 q 333 619 344 623 q 355 627 362 627 q 376 627 387 616 q 392 611 397 600 q 402 590 406 566 q 410 541 413 497 q 416 453 417 381 q 418 355 418 328 q 418 300 418 273 q 418 217 418 166 q 417 115 416 78 l 416 24 q 416 9 409 -2 q 402 -12 385 -12 q 378 -12 368 -8 q 358 -4 349 10 q 339 27 332 59 q 324 91 318 128 q 313 164 310 199 q 308 234 306 256 q 264 246 222 239 q 179 232 136 224 q 135 179 133 135 q 131 91 126 61 q 125 52 122 41 q 120 30 115 21 q 110 12 102 6 q 95 0 83 0 q 77 0 68 3 q 58 6 49 19 q 38 37 32 75 q 25 113 22 156 q 19 199 18 239 q 17 279 17 299 q 17 326 18 364 q 18 401 21 440 q 24 480 29 517 q 34 554 43 580 q 48 597 60 612 q 71 627 91 627 q 110 627 116 612 q 123 598 125 582 q 127 573 128 560 q 128 548 130 531 q 134 470 136 408 q 137 347 137 285 q 179 292 220 300 q 261 307 303 317 z"},"4":{"x_min":0,"x_max":385,"ha":385,"o":"m 2 273 q 2 291 20 324 q 38 356 66 394 q 94 433 128 473 q 163 513 194 546 q 226 578 252 599 q 277 620 288 620 q 301 620 310 610 q 315 605 317 598 q 319 592 319 586 q 337 569 346 530 q 356 491 361 446 q 366 402 367 360 q 368 319 368 296 q 368 242 365 194 q 362 146 355 108 q 353 95 349 76 q 345 57 338 40 q 330 24 318 12 q 306 0 288 0 q 274 0 263 11 q 259 16 256 22 q 253 29 250 42 q 248 54 247 74 q 246 94 246 124 q 246 144 246 165 q 247 186 247 207 q 219 205 194 204 q 170 202 150 202 q 131 202 106 204 q 80 205 57 212 q 34 219 18 234 q 2 248 2 273 z m 251 470 q 212 418 172 368 q 131 317 89 266 q 104 264 119 263 q 134 262 150 262 q 170 262 195 264 q 220 265 249 267 q 252 320 254 372 q 255 424 256 477 q 254 475 254 474 q 253 472 251 470 z"},"D":{"x_min":0,"x_max":478,"ha":478,"o":"m 18 281 q 18 310 18 348 q 19 387 22 428 q 25 468 30 506 q 35 544 44 571 q 49 588 60 604 q 71 619 92 619 q 103 619 110 614 q 116 609 120 601 q 123 593 124 584 q 126 574 127 566 q 156 590 190 604 q 224 619 259 619 q 317 619 356 588 q 396 557 420 510 q 444 463 454 409 q 465 355 465 308 q 465 261 454 207 q 444 153 420 107 q 395 61 355 30 q 315 0 257 0 q 222 0 189 10 q 156 21 128 41 q 127 31 124 19 q 122 7 118 -4 q 113 -14 105 -21 q 97 -28 84 -28 q 78 -28 68 -24 q 58 -21 50 -8 q 43 4 38 26 q 32 49 28 76 q 25 104 23 134 q 21 164 20 192 q 19 220 18 244 q 18 267 18 281 z m 350 308 q 350 360 343 406 q 336 451 324 485 q 311 519 294 539 q 278 559 259 559 q 241 559 222 552 q 204 546 187 536 q 170 525 156 510 q 142 496 133 480 q 135 426 136 374 q 138 322 138 268 q 138 232 137 192 q 136 152 134 115 q 156 90 189 75 q 222 60 257 60 q 277 60 292 75 q 306 90 316 113 q 327 136 334 164 q 340 193 344 221 q 347 249 348 272 q 350 295 350 308 z"},"^":{"x_min":0,"x_max":263,"ha":263,"o":"m 84 461 q 94 477 105 490 q 116 502 133 502 q 150 502 160 490 q 171 477 181 460 q 186 452 198 429 q 210 406 222 380 q 234 354 244 332 q 253 309 253 301 q 253 288 244 280 q 236 271 223 271 q 203 271 195 289 q 181 324 166 358 q 150 392 132 425 q 113 392 98 358 q 82 324 68 289 q 64 280 56 276 q 49 271 40 271 q 28 271 19 280 q 10 288 10 301 q 10 309 20 332 q 29 354 42 380 q 54 406 66 429 q 79 452 84 461 z"},"0":{"x_min":0,"x_max":425,"ha":425,"o":"m 412 316 q 412 290 408 256 q 405 223 398 188 q 390 153 377 119 q 364 85 344 58 q 325 32 298 16 q 272 0 237 0 q 178 0 136 24 q 93 48 66 87 q 38 126 25 176 q 12 226 12 278 q 12 332 27 392 q 42 452 73 503 q 104 554 150 587 q 197 620 261 620 q 274 620 282 611 q 291 602 291 590 l 291 588 q 329 576 352 544 q 376 512 389 472 q 402 433 407 391 q 412 349 412 316 z m 207 531 q 186 508 172 475 q 157 442 148 406 q 139 370 135 334 q 131 298 131 269 q 131 244 135 208 q 139 173 150 140 q 161 107 182 84 q 203 60 237 60 q 260 60 278 74 q 295 89 308 112 q 320 136 328 164 q 337 193 342 222 q 347 250 349 275 q 351 300 351 316 q 351 339 347 376 q 343 412 333 447 q 323 482 305 507 q 287 532 258 532 q 249 532 234 527 q 228 525 224 525 q 219 525 215 527 q 211 529 207 531 z"},"F":{"x_min":0,"x_max":356,"ha":356,"o":"m 145 317 q 156 317 174 318 q 191 318 210 319 q 228 320 244 322 q 260 325 266 329 q 274 335 284 335 q 296 335 305 326 q 314 317 314 305 q 314 291 301 281 q 289 272 270 267 q 250 262 228 260 q 205 258 183 258 q 161 257 145 257 l 138 257 q 140 224 141 190 q 142 157 142 128 q 142 117 142 106 q 142 96 141 87 q 140 71 139 60 q 138 48 136 40 q 133 25 124 12 q 115 0 98 0 q 90 0 80 4 q 70 9 61 23 q 47 45 38 87 q 30 129 25 177 q 20 225 18 272 q 16 320 16 351 q 16 390 20 432 q 23 475 34 512 q 44 549 64 576 q 85 604 118 612 q 142 618 166 620 q 191 622 215 622 q 256 622 290 618 q 324 615 332 613 q 354 606 354 584 q 354 572 345 563 q 336 554 324 554 q 319 554 316 555 q 308 557 280 560 q 251 562 215 562 q 206 562 192 562 q 178 561 164 560 q 149 558 136 555 q 123 552 114 547 q 115 546 115 544 q 123 487 127 430 q 131 374 135 317 z"},"`":{"x_min":0,"x_max":124,"ha":124,"o":"m 88 480 q 79 480 65 493 q 51 506 38 524 q 25 541 16 558 q 7 574 7 581 q 7 593 16 602 q 24 610 36 610 q 45 610 53 604 q 61 599 64 590 q 67 583 72 574 q 78 565 85 556 q 92 548 98 541 q 105 534 109 530 q 117 520 117 509 q 116 498 108 489 q 99 480 88 480 z"},"k":{"x_min":0,"x_max":322,"ha":322,"o":"m 17 257 q 17 291 18 331 q 18 371 21 412 q 24 453 30 492 q 35 532 44 565 q 49 582 60 600 q 70 617 92 617 q 112 617 118 601 q 123 585 125 569 q 130 512 130 456 q 131 400 131 343 q 131 309 130 276 q 130 244 129 215 q 144 227 160 240 q 176 254 192 266 q 207 278 222 288 q 236 299 246 305 q 253 309 261 309 q 274 309 282 300 q 291 291 291 279 q 291 262 277 253 q 268 247 254 238 q 241 228 226 216 q 210 204 194 190 q 177 177 162 164 q 183 160 210 152 q 237 143 261 130 q 285 117 302 98 q 318 79 318 53 q 318 33 308 17 q 297 1 274 0 q 263 -1 250 4 q 238 9 220 19 q 195 33 171 50 q 147 67 124 85 q 123 69 121 54 q 120 45 118 36 q 116 26 112 18 q 108 10 101 5 q 94 0 83 0 q 72 0 60 8 q 48 15 39 38 q 31 58 26 87 q 22 116 20 147 q 18 178 18 207 q 17 236 17 257 z"},"u":{"x_min":0,"x_max":342,"ha":342,"o":"m 251 0 q 240 0 233 6 q 226 11 222 19 q 219 27 218 36 q 216 46 215 54 q 203 34 184 17 q 165 0 139 0 q 103 0 80 18 q 56 37 42 65 q 27 93 21 126 q 15 159 15 187 q 15 204 18 228 q 20 252 28 274 q 36 296 50 312 q 64 328 87 328 q 108 328 118 311 q 128 294 132 272 q 135 249 134 226 q 134 202 134 188 q 134 177 134 156 q 133 135 133 114 q 133 93 135 78 q 137 62 143 62 q 154 62 164 76 q 173 90 180 112 q 188 133 194 160 q 201 186 206 212 q 211 237 215 258 q 219 280 222 291 q 226 305 234 316 q 243 327 260 327 q 283 327 296 312 q 309 296 316 274 q 322 252 324 228 q 326 205 326 188 q 326 170 324 138 q 321 107 314 76 q 306 46 291 23 q 276 0 251 0 z"},"]":{"x_min":0,"x_max":273,"ha":273,"o":"m 8 -41 q 8 -29 17 -20 q 26 -11 38 -11 q 45 -11 48 -13 q 65 -19 82 -24 q 100 -28 118 -28 q 134 -28 134 -25 q 138 -16 140 8 q 142 31 143 58 q 144 85 144 111 q 144 137 144 151 q 144 173 144 206 q 143 240 142 280 q 141 319 139 360 q 137 401 134 438 q 131 474 127 502 q 123 531 117 544 q 114 551 105 556 q 96 561 86 564 q 75 567 64 568 q 53 569 45 569 q 33 569 24 578 q 16 587 16 599 q 16 612 24 620 q 33 629 46 629 q 66 629 93 626 q 120 623 146 616 q 173 609 194 596 q 216 584 224 564 q 231 547 236 515 q 241 483 245 443 q 249 403 251 359 q 253 315 254 274 q 256 233 256 198 q 257 164 257 144 q 257 121 257 100 q 257 80 256 62 q 254 0 248 -24 q 243 -48 238 -56 q 215 -94 153 -94 q 124 -94 89 -87 q 54 -80 27 -69 q 8 -61 8 -41 z"},"U":{"x_min":0,"x_max":481,"ha":481,"o":"m 464 342 q 464 313 462 274 q 461 236 458 196 q 454 155 448 116 q 441 78 431 50 q 429 46 426 38 q 422 30 416 22 q 410 15 402 9 q 393 3 381 3 q 364 3 355 14 q 346 26 342 42 q 339 59 339 76 q 339 93 339 104 q 339 130 340 165 q 341 200 343 248 q 343 253 344 256 q 344 260 344 265 q 336 236 322 191 q 308 146 287 104 q 266 61 238 30 q 209 0 171 0 q 137 0 112 22 q 88 43 71 77 q 54 111 43 153 q 32 195 26 237 q 20 279 18 316 q 16 352 16 375 q 16 388 16 412 q 17 435 20 462 q 22 490 28 518 q 33 547 42 570 q 52 594 66 608 q 80 623 100 623 q 115 623 123 614 q 131 604 134 591 q 137 578 138 564 q 138 549 138 539 q 138 505 135 442 q 134 407 133 368 q 132 329 132 290 q 132 277 132 254 q 133 232 134 206 q 136 181 139 155 q 142 129 146 108 q 151 87 158 74 q 164 60 173 60 q 180 60 197 75 q 214 90 236 136 q 257 181 275 240 q 293 299 306 361 q 320 423 330 484 q 339 545 345 594 q 347 605 356 613 q 364 621 375 621 q 393 621 406 611 q 419 601 428 586 q 437 571 442 554 q 447 536 450 521 q 458 478 461 429 q 464 380 464 342 z"},"o":{"x_min":0,"x_max":313,"ha":313,"o":"m 167 328 q 178 328 186 322 q 193 317 195 311 l 203 311 q 230 311 248 298 q 267 284 278 263 q 289 242 294 217 q 299 192 299 170 q 299 143 292 113 q 285 83 269 58 q 253 33 226 16 q 200 0 162 0 q 132 0 105 11 q 78 22 58 42 q 37 62 25 91 q 13 120 13 156 q 13 189 24 220 q 35 251 56 275 q 76 299 104 314 q 133 328 167 328 z m 198 251 q 179 251 169 269 q 159 269 152 254 q 144 238 140 218 q 135 199 132 180 q 130 161 130 155 q 130 151 131 136 q 132 121 136 104 q 141 87 151 74 q 161 60 179 60 q 196 60 208 72 q 219 84 226 102 q 233 119 236 138 q 239 157 239 171 q 239 181 238 194 q 236 208 232 220 q 227 233 219 242 q 211 251 198 251 z"},"N":{"x_min":0,"x_max":411,"ha":411,"o":"m 305 587 q 305 600 314 608 q 323 617 335 617 q 355 617 363 598 q 373 574 379 536 q 385 498 388 456 q 391 415 392 376 q 393 337 393 310 q 393 296 392 272 q 392 248 391 218 q 390 189 388 158 q 386 127 382 99 q 379 71 374 49 q 368 27 361 17 q 351 0 331 0 q 314 0 302 12 q 289 24 280 36 q 272 48 262 64 q 253 81 241 103 q 196 188 159 276 q 122 364 86 453 q 83 402 80 346 q 78 289 78 235 q 78 173 82 121 q 86 69 97 40 q 99 34 99 30 q 99 18 90 9 q 81 0 69 0 q 48 0 40 20 q 29 52 24 106 q 18 160 18 236 q 18 324 23 411 q 28 498 37 586 q 39 597 48 605 q 56 613 67 613 q 95 613 123 585 q 151 557 178 514 q 204 470 228 416 q 252 363 272 312 q 291 261 306 219 q 320 177 327 156 q 333 236 333 314 q 333 407 326 477 q 319 547 307 576 q 306 579 306 582 q 305 584 305 587 z"},"+":{"x_min":0,"x_max":194,"ha":194,"o":"m 65 205 q 56 205 46 206 q 36 207 27 210 q 18 214 12 220 q 6 227 6 239 q 6 251 15 260 q 24 269 36 269 q 42 269 45 268 q 51 265 64 265 q 64 274 65 284 q 66 295 70 304 q 73 313 80 319 q 86 325 98 325 q 111 325 120 316 q 128 308 128 295 q 128 289 127 286 q 126 280 124 266 q 132 267 140 268 q 148 268 155 268 q 156 269 158 269 q 170 269 179 260 q 188 251 188 239 q 188 227 180 218 q 172 210 161 209 q 153 208 125 206 q 127 190 128 176 q 128 163 120 153 q 112 143 98 143 q 87 143 78 151 q 70 159 68 170 q 67 175 66 184 q 66 193 65 205 z"},"G":{"x_min":0,"x_max":445,"ha":445,"o":"m 348 557 q 348 545 339 536 q 330 527 318 527 q 308 527 300 533 q 267 559 240 557 q 218 557 202 540 q 185 524 173 498 q 161 472 152 440 q 144 409 139 379 q 134 349 132 323 q 130 297 130 282 q 130 261 134 224 q 137 187 147 151 q 157 115 176 88 q 195 61 225 60 q 248 60 268 74 q 288 88 305 108 q 322 129 335 152 q 348 175 357 193 q 333 188 308 183 q 284 178 259 175 q 241 172 229 172 q 214 172 202 180 q 189 187 189 204 q 189 216 198 225 q 207 234 219 234 q 223 234 229 232 q 233 232 252 234 q 272 237 321 247 q 337 251 351 254 q 365 257 376 259 q 389 262 400 265 q 402 265 404 266 q 405 266 407 266 q 420 266 428 257 q 437 248 437 236 q 437 228 430 211 q 424 194 415 176 q 406 157 397 140 q 388 124 384 118 q 372 97 356 76 q 340 55 320 38 q 301 22 278 11 q 255 0 228 0 q 170 0 129 28 q 88 55 62 98 q 37 141 25 193 q 13 245 13 295 q 13 347 26 404 q 38 460 66 508 q 93 555 136 586 q 180 617 242 617 q 253 617 270 613 q 288 609 306 601 q 323 593 336 582 q 348 571 348 557 z"},"q":{"x_min":0,"x_max":352,"ha":352,"o":"m 222 59 q 205 36 180 18 q 156 0 124 0 q 70 0 36 32 q 2 65 2 120 q 2 156 16 187 q 31 218 55 242 q 79 265 111 278 q 143 291 178 291 q 202 291 226 282 q 226 292 226 304 q 227 317 230 328 q 233 340 240 348 q 248 355 261 355 q 279 355 292 336 q 304 318 312 288 q 321 259 326 222 q 330 186 332 150 q 335 114 336 83 q 336 52 336 33 q 336 19 336 -6 q 336 -31 335 -59 q 334 -87 330 -116 q 327 -145 320 -168 q 312 -192 300 -207 q 288 -222 270 -222 q 254 -222 244 -204 q 235 -186 230 -158 q 224 -130 222 -96 q 221 -63 221 -32 q 221 0 222 24 q 222 48 222 59 z m 117 96 q 117 86 118 73 q 120 60 126 60 q 142 60 158 76 q 173 91 186 112 q 199 134 209 156 q 219 179 223 192 l 223 217 q 198 231 178 231 q 162 231 150 214 q 139 198 132 176 q 124 153 120 130 q 117 108 117 96 z"},"d":{"x_min":0,"x_max":354,"ha":354,"o":"m 127 0 q 72 0 38 32 q 3 65 3 119 q 3 155 18 186 q 32 217 56 240 q 80 264 112 277 q 144 290 179 290 q 202 290 223 283 l 223 330 q 223 389 223 448 q 223 507 228 567 q 230 584 236 600 q 241 616 262 616 q 268 616 278 612 q 289 608 298 593 q 307 578 313 551 q 319 524 324 490 q 328 457 330 420 q 333 382 334 348 q 336 314 336 286 q 337 257 337 240 q 337 134 328 69 q 326 57 323 40 q 320 23 314 8 q 308 -8 298 -18 q 288 -29 271 -29 q 260 -29 253 -24 q 246 -18 242 -10 q 238 -1 236 8 q 234 18 233 27 q 231 35 230 45 q 230 55 229 67 q 211 41 186 20 q 160 0 127 0 z m 118 100 q 118 96 118 90 q 118 83 119 76 q 120 70 122 65 q 124 60 127 60 q 143 60 158 76 q 174 91 188 113 q 201 135 210 158 q 220 180 224 193 l 224 217 q 201 230 180 230 q 165 230 153 214 q 141 199 134 178 q 126 156 122 134 q 118 112 118 100 z"},"1":{"x_min":0,"x_max":204,"ha":204,"o":"m 34 475 q 22 475 13 484 q 4 492 4 505 q 4 516 11 524 q 17 532 24 540 q 30 548 36 556 q 60 587 75 602 q 90 618 107 619 q 130 619 144 602 q 157 586 165 567 q 173 546 178 518 q 182 490 184 461 q 187 432 188 404 q 189 376 189 353 q 189 320 188 278 q 187 237 184 194 q 181 152 175 112 q 169 71 158 39 q 153 25 144 12 q 135 0 118 0 q 104 0 93 11 q 85 19 80 36 q 74 54 72 97 q 69 142 69 215 q 69 289 71 362 q 73 435 76 509 q 71 503 66 497 q 62 491 57 486 q 48 475 34 475 z"},"5":{"x_min":0,"x_max":396,"ha":396,"o":"m 124 382 q 136 384 146 384 q 157 384 167 384 q 209 384 249 372 q 289 360 320 336 q 351 312 370 276 q 389 241 389 195 q 389 147 369 111 q 349 75 316 50 q 283 25 241 12 q 199 0 155 0 q 100 0 33 23 q 13 30 13 51 q 13 63 22 72 q 31 81 43 81 q 47 81 53 79 q 81 70 106 65 q 132 60 155 60 q 185 60 207 71 q 229 82 244 100 q 258 119 266 144 q 273 169 273 196 q 273 219 266 242 q 260 265 247 283 q 234 301 214 312 q 194 324 167 324 q 152 324 136 324 q 120 323 103 318 q 100 318 99 317 q 76 317 61 328 q 46 338 38 354 q 29 371 26 390 q 22 409 22 427 q 22 446 25 468 q 28 490 34 512 q 41 533 51 552 q 61 571 74 585 q 84 597 103 604 q 122 611 144 614 q 167 618 189 618 q 211 619 227 619 l 248 619 q 260 618 268 610 q 277 601 277 588 q 276 575 267 567 q 258 559 246 559 l 227 559 q 217 559 203 558 q 189 558 174 557 q 159 556 146 554 q 133 552 124 548 q 123 543 122 530 q 121 517 121 490 q 121 436 124 382 z"}}}
